<?xml version="1.0" encoding="UTF-8"?>
<!DOCTYPE svg PUBLIC "-//W3C//DTD SVG 1.1//EN" "http://www.w3.org/Graphics/SVG/1.1/DTD/svg11.dtd">
<svg xmlns="http://www.w3.org/2000/svg" version="1.1" width="538px" height="180px" style="shape-rendering:geometricPrecision; text-rendering:geometricPrecision; image-rendering:optimizeQuality; fill-rule:evenodd; clip-rule:evenodd" xmlns:xlink="http://www.w3.org/1999/xlink">
<g><path style="opacity:1" fill="#4b60a8" d="M 87.5,44.5 C 96.8433,44.9335 104.51,48.6002 110.5,55.5C 109.508,55.3284 108.842,55.6618 108.5,56.5C 107.474,55.147 106.141,54.147 104.5,53.5C 104.167,53.5 103.833,53.5 103.5,53.5C 102.5,53.8333 101.833,54.5 101.5,55.5C 101.167,55.5 100.833,55.5 100.5,55.5C 99.4282,53.1602 97.7615,52.8269 95.5,54.5C 94.8589,53.0065 93.8589,52.0065 92.5,51.5C 92.7352,50.9033 93.2352,50.5699 94,50.5C 95.6049,52.0639 97.4382,52.5639 99.5,52C 97.2172,49.81 94.5505,49.1433 91.5,50C 90.2617,50.69 90.2617,51.19 91.5,51.5C 90.7387,52.3909 89.7387,53.0576 88.5,53.5C 87.3044,53.1543 87.3044,52.6543 88.5,52C 87.2068,51.51 85.8734,51.3433 84.5,51.5C 85.1667,50.8333 85.8333,50.1667 86.5,49.5C 87.2891,49.2172 87.9558,48.7172 88.5,48C 87.2625,47.7679 86.2625,47.2679 85.5,46.5C 86.1667,45.8333 86.8333,45.1667 87.5,44.5 Z M 92.5,51.5 C 92.1667,51.5 91.8333,51.5 91.5,51.5C 90.2617,51.19 90.2617,50.69 91.5,50C 94.5505,49.1433 97.2172,49.81 99.5,52C 97.4382,52.5639 95.6049,52.0639 94,50.5C 93.2352,50.5699 92.7352,50.9033 92.5,51.5 Z"/></g>
<g><path style="opacity:0.061" fill="#f9fafc" d="M 82.5,46.5 C 82.5,46.8333 82.5,47.1667 82.5,47.5C 80.4176,47.472 78.5843,48.1387 77,49.5C 76.3828,48.5509 76.5494,47.7175 77.5,47C 79.1341,46.5065 80.8008,46.3398 82.5,46.5 Z"/></g>
<g><path style="opacity:0.304" fill="#dae1ee" d="M 82.5,47.5 C 83.6049,48.6005 84.9382,49.2671 86.5,49.5C 85.8333,50.1667 85.1667,50.8333 84.5,51.5C 83.5041,51.4142 82.6708,51.7476 82,52.5C 81.6155,50.8034 81.7822,49.1368 82.5,47.5 Z"/></g>
<g><path style="opacity:1" fill="#26489a" d="M 87.5,44.5 C 86.8333,45.1667 86.1667,45.8333 85.5,46.5C 84.5,46.5 83.5,46.5 82.5,46.5C 80.8008,46.3398 79.1341,46.5065 77.5,47C 76.5494,47.7175 76.3828,48.5509 77,49.5C 78.5843,48.1387 80.4176,47.472 82.5,47.5C 81.7822,49.1368 81.6155,50.8034 82,52.5C 82.6708,51.7476 83.5041,51.4142 84.5,51.5C 85.8734,51.3433 87.2068,51.51 88.5,52C 87.3044,52.6543 87.3044,53.1543 88.5,53.5C 89.7387,53.0576 90.7387,52.3909 91.5,51.5C 91.8333,51.5 92.1667,51.5 92.5,51.5C 93.8589,52.0065 94.8589,53.0065 95.5,54.5C 97.7615,52.8269 99.4282,53.1602 100.5,55.5C 98.8089,56.8637 97.1423,58.197 95.5,59.5C 95.2169,60.2161 94.8836,61.0494 94.5,62C 96.3008,62.3173 96.6341,62.984 95.5,64C 96.7828,67.0483 98.4495,67.215 100.5,64.5C 101.696,64.8457 101.696,65.3457 100.5,66C 101.437,66.6917 102.103,66.525 102.5,65.5C 102.833,65.5 103.167,65.5 103.5,65.5C 103.5,66.1667 103.5,66.8333 103.5,67.5C 100.939,67.4469 98.9394,68.4469 97.5,70.5C 98.4383,71.5529 99.605,72.2196 101,72.5C 111.433,69.8315 111.933,70.9981 102.5,76C 105.319,75.5078 107.986,75.6744 110.5,76.5C 111.404,75.791 111.737,74.791 111.5,73.5C 111.5,72.8333 111.5,72.1667 111.5,71.5C 111.5,71.1667 111.5,70.8333 111.5,70.5C 111.5,69.8333 111.167,69.5 110.5,69.5C 110.5,68.8333 110.5,68.1667 110.5,67.5C 110.631,66.7611 110.464,66.0944 110,65.5C 108.67,66.5822 107.17,67.2488 105.5,67.5C 106.953,66.1751 106.619,65.3418 104.5,65C 106.025,63.9914 107.692,63.4914 109.5,63.5C 109.552,61.0971 109.219,58.7638 108.5,56.5C 108.842,55.6618 109.508,55.3284 110.5,55.5C 111.338,55.8417 111.672,56.5084 111.5,57.5C 111.875,59.6976 112.542,61.6976 113.5,63.5C 113.833,63.5 114.167,63.5 114.5,63.5C 114.443,64.609 114.11,65.609 113.5,66.5C 113.557,67.609 113.89,68.609 114.5,69.5C 114.5,69.8333 114.5,70.1667 114.5,70.5C 114.5,72.1667 114.5,73.8333 114.5,75.5C 112.221,81.3289 109.555,86.9955 106.5,92.5C 105.833,92.8333 105.167,93.1667 104.5,93.5C 102.632,94.2632 100.965,95.2632 99.5,96.5C 99.1667,96.5 98.8333,96.5 98.5,96.5C 90.2496,98.0502 81.9163,98.7169 73.5,98.5C 73.2714,105.515 72.7714,112.515 72,119.5C 71.6322,120.91 70.7989,121.91 69.5,122.5C 66.8023,121.176 64.1357,121.176 61.5,122.5C 59.7376,122.643 58.0709,122.309 56.5,121.5C 55.7634,114.497 55.0967,107.497 54.5,100.5C 54.902,86.6873 55.5687,72.854 56.5,59C 56.0426,58.586 55.7093,58.086 55.5,57.5C 57.9442,54.6033 57.9442,51.77 55.5,49C 56.2918,47.0403 57.6251,45.5403 59.5,44.5C 68.9723,43.4653 78.3056,43.4653 87.5,44.5 Z M 67.5,49.5 C 67.0269,50.9063 66.0269,51.573 64.5,51.5C 64.9731,50.0937 65.9731,49.427 67.5,49.5 Z M 67.5,47.5 C 68.791,47.2627 69.791,47.596 70.5,48.5C 69.609,49.1098 68.609,49.4431 67.5,49.5C 67.5,48.8333 67.5,48.1667 67.5,47.5 Z M 103.5,58.5 C 103.833,58.5 104.167,58.5 104.5,58.5C 105.167,58.5 105.5,58.8333 105.5,59.5C 104.075,61.0311 103.409,60.6977 103.5,58.5 Z M 60.5,65.5 C 61.3382,65.8417 61.6716,66.5084 61.5,67.5C 61.1667,67.5 60.8333,67.5 60.5,67.5C 59.8333,67.5 59.5,67.1667 59.5,66.5C 60.1667,66.5 60.5,66.1667 60.5,65.5 Z M 88.5,66.5 C 89.8333,66.8333 91.1667,67.1667 92.5,67.5C 97.2177,76.4067 94.8844,81.74 85.5,83.5C 85.3262,79.4059 84.3262,75.2392 82.5,71C 82.7355,70.1268 83.0688,69.2935 83.5,68.5C 85.2914,67.8302 86.9581,67.1635 88.5,66.5 Z M 110.5,67.5 C 110.5,68.1667 110.5,68.8333 110.5,69.5C 108.067,69.2144 108.067,68.5477 110.5,67.5 Z M 60.5,69.5 C 61.1667,69.5 61.8333,69.5 62.5,69.5C 63.1157,70.2022 63.1157,71.2022 62.5,72.5C 61.5041,72.4142 60.6708,72.7476 60,73.5C 59.235,71.9343 59.4017,70.6009 60.5,69.5 Z M 63.5,74.5 C 63.2671,76.0618 62.6005,77.3951 61.5,78.5C 61.1667,78.5 60.8333,78.5 60.5,78.5C 60.7376,76.5956 61.7376,75.2623 63.5,74.5 Z M 102.5,85.5 C 102.5,86.1667 102.5,86.8333 102.5,87.5C 102.167,87.5 101.833,87.5 101.5,87.5C 100.833,87.5 100.5,87.1667 100.5,86.5C 101.167,86.1667 101.833,85.8333 102.5,85.5 Z"/></g>
<g><path style="opacity:1" fill="#a2b5d5" d="M 82.5,53.5 C 84.3786,53.3932 84.7119,53.8932 83.5,55C 81.9556,56.1871 80.2889,56.5205 78.5,56C 80.0664,55.3918 81.3998,54.5585 82.5,53.5 Z"/></g>
<g><path style="opacity:0.191" fill="#bcc8e0" d="M 65.5,61.5 C 62.4392,61.4443 60.2725,62.7776 59,65.5C 58.3184,61.8198 59.8184,59.3198 63.5,58C 62.1667,58 60.8333,58 59.5,58C 59.9147,55.9737 60.9147,54.4737 62.5,53.5C 61.537,54.3635 61.537,55.0302 62.5,55.5C 65.561,53.1312 68.8943,51.6312 72.5,51C 70.3428,52.9121 68.0094,54.5787 65.5,56C 66.624,56.2492 67.624,56.7492 68.5,57.5C 67.0905,58.5695 66.0905,59.9028 65.5,61.5 Z"/></g>
<g><path style="opacity:1" fill="#bdcbe1" d="M 76.5,51.5 C 77.2389,51.369 77.9056,51.5357 78.5,52C 77.2125,53.4095 76.0458,54.9095 75,56.5C 74.0754,55.9535 73.2421,55.2868 72.5,54.5C 73.9014,53.4793 75.2347,52.4793 76.5,51.5 Z"/></g>
<g><path style="opacity:0.349" fill="#c7d2e5" d="M 63.5,51.5 C 63.5,51.8333 63.5,52.1667 63.5,52.5C 62.8333,52.5 62.1667,52.5 61.5,52.5C 60.5505,47.9017 61.2172,47.5683 63.5,51.5 Z"/></g>
<g><path style="opacity:0.408" fill="#bbc9e0" d="M 67.5,47.5 C 68.9464,46.3871 70.6131,46.2204 72.5,47C 71.9558,47.7172 71.2891,48.2172 70.5,48.5C 69.791,47.596 68.791,47.2627 67.5,47.5 Z"/></g>
<g><path style="opacity:0.467" fill="#bbc8e0" d="M 88.5,54.5 C 90.5924,55.2855 90.2591,56.2855 87.5,57.5C 87.1667,57.1667 86.8333,56.8333 86.5,56.5C 87.2427,55.8182 87.9094,55.1515 88.5,54.5 Z"/></g>
<g><path style="opacity:1" fill="#1b4598" d="M 102.5,55.5 C 106.64,54.9557 107.307,55.9557 104.5,58.5C 104.167,58.5 103.833,58.5 103.5,58.5C 102.399,59.7997 101.066,60.2997 99.5,60C 100.833,59.3333 100.833,58.6667 99.5,58C 100.571,57.1482 101.571,56.3149 102.5,55.5 Z"/></g>
<g><path style="opacity:0.157" fill="#ccd5e7" d="M 93.5,58.5 C 94.0524,56.3914 95.3858,55.5581 97.5,56C 96.3066,57.0946 94.9733,57.928 93.5,58.5 Z"/></g>
<g><path style="opacity:1" fill="#5672b1" d="M 95.5,59.5 C 96.2389,59.369 96.9056,59.5357 97.5,60C 97.5,61 97.5,62 97.5,63C 98.9961,63.5074 100.163,63.0074 101,61.5C 101.278,62.4158 101.778,63.0825 102.5,63.5C 102.5,63.8333 102.5,64.1667 102.5,64.5C 102.5,64.8333 102.5,65.1667 102.5,65.5C 102.103,66.525 101.437,66.6917 100.5,66C 101.696,65.3457 101.696,64.8457 100.5,64.5C 98.4495,67.215 96.7828,67.0483 95.5,64C 96.6341,62.984 96.3008,62.3173 94.5,62C 94.8836,61.0494 95.2169,60.2161 95.5,59.5 Z"/></g>
<g><path style="opacity:0.983" fill="#ccd7e8" d="M 90.5,62.5 C 91.3092,64.0276 91.9759,65.6943 92.5,67.5C 91.1667,67.1667 89.8333,66.8333 88.5,66.5C 86.2075,66.2436 84.0408,66.5769 82,67.5C 82.1343,73.0266 82.9677,78.36 84.5,83.5C 81.3752,84.4794 78.0419,84.8128 74.5,84.5C 74.5865,75.8123 74.2532,67.1456 73.5,58.5C 79.8003,57.6813 85.467,59.0146 90.5,62.5 Z"/></g>
<g><path style="opacity:0.925" fill="#8497c6" d="M 100.5,55.5 C 100.833,55.5 101.167,55.5 101.5,55.5C 101.833,55.5 102.167,55.5 102.5,55.5C 101.571,56.3149 100.571,57.1482 99.5,58C 100.833,58.6667 100.833,59.3333 99.5,60C 101.066,60.2997 102.399,59.7997 103.5,58.5C 103.409,60.6977 104.075,61.0311 105.5,59.5C 106.239,59.369 106.906,59.5357 107.5,60C 106.211,61.8022 104.544,62.9688 102.5,63.5C 101.778,63.0825 101.278,62.4158 101,61.5C 100.163,63.0074 98.9961,63.5074 97.5,63C 97.5,62 97.5,61 97.5,60C 96.9056,59.5357 96.2389,59.369 95.5,59.5C 97.1423,58.197 98.8089,56.8637 100.5,55.5 Z"/></g>
<g><path style="opacity:0.287" fill="#bccae1" d="M 103.5,53.5 C 103.833,54.8333 104.167,54.8333 104.5,53.5C 106.141,54.147 107.474,55.147 108.5,56.5C 109.219,58.7638 109.552,61.0971 109.5,63.5C 107.692,63.4914 106.025,63.9914 104.5,65C 106.619,65.3418 106.953,66.1751 105.5,67.5C 104.833,67.5 104.167,67.5 103.5,67.5C 103.5,66.8333 103.5,66.1667 103.5,65.5C 103.5,64.8333 103.167,64.5 102.5,64.5C 102.5,64.1667 102.5,63.8333 102.5,63.5C 104.544,62.9688 106.211,61.8022 107.5,60C 106.906,59.5357 106.239,59.369 105.5,59.5C 105.5,58.8333 105.167,58.5 104.5,58.5C 107.307,55.9557 106.64,54.9557 102.5,55.5C 102.167,55.5 101.833,55.5 101.5,55.5C 101.833,54.5 102.5,53.8333 103.5,53.5 Z"/></g>
<g><path style="opacity:1" fill="#48a344" d="M 482.5,71.5 C 484.935,76.1369 486.435,81.1369 487,86.5C 488.21,99.1454 489.043,111.812 489.5,124.5C 486.167,124.5 482.833,124.5 479.5,124.5C 476.833,124.5 474.167,124.5 471.5,124.5C 472.339,111.562 471.005,98.8955 467.5,86.5C 466.368,81.6996 463.368,79.0329 458.5,78.5C 458.167,78.5 457.833,78.5 457.5,78.5C 454.415,78.418 452.748,79.918 452.5,83C 453.378,91.6502 454.044,100.484 454.5,109.5C 454.564,113.919 454.064,118.252 453,122.5C 448.934,123.464 444.767,123.797 440.5,123.5C 437.959,124.649 435.459,124.649 433,123.5C 432.5,112.172 432.333,100.838 432.5,89.5C 432.5,83.8333 432.5,78.1667 432.5,72.5C 432.26,69.4212 432.593,66.4212 433.5,63.5C 437.399,62.0159 441.399,61.5159 445.5,62C 446.071,63.2051 446.738,64.3717 447.5,65.5C 457.966,60.0591 468.299,60.2258 478.5,66C 480.439,67.4321 481.772,69.2654 482.5,71.5 Z M 436.5,66.5 C 440.099,66.2619 440.433,67.2619 437.5,69.5C 440.167,70.5 440.167,71.5 437.5,72.5C 436.534,70.604 436.201,68.604 436.5,66.5 Z"/></g>
<g><path style="opacity:0.812" fill="#95a9cf" d="M 61.5,67.5 C 61.6716,66.5084 61.3382,65.8417 60.5,65.5C 61.9842,63.9263 63.6508,62.593 65.5,61.5C 67.1703,61.2488 68.6703,60.5822 70,59.5C 70.4828,60.448 70.6495,61.448 70.5,62.5C 68.3453,62.372 66.3453,62.872 64.5,64C 64.8333,64.3333 65.1667,64.6667 65.5,65C 64.3066,66.0946 62.9733,66.928 61.5,67.5 Z"/></g>
<g><path style="opacity:1" fill="#4aa445" d="M 244.5,74.5 C 252.458,86.7154 254.625,100.049 251,114.5C 249.824,116.196 248.657,117.862 247.5,119.5C 245.882,121.316 243.882,122.649 241.5,123.5C 237.975,125.23 234.309,126.564 230.5,127.5C 229.5,127.5 228.5,127.5 227.5,127.5C 225.236,128.219 222.903,128.552 220.5,128.5C 219.833,128.5 219.167,128.5 218.5,128.5C 215.888,127.629 213.221,126.963 210.5,126.5C 210.5,129.833 210.5,133.167 210.5,136.5C 210.5,137.167 210.5,137.833 210.5,138.5C 211.676,143.047 211.676,147.547 210.5,152C 204.956,153.404 199.29,153.904 193.5,153.5C 192.127,139.202 191.127,124.869 190.5,110.5C 190.5,108.833 190.5,107.167 190.5,105.5C 191.264,100.37 191.93,95.203 192.5,90C 191.464,82.8535 191.297,75.6868 192,68.5C 192.273,66.6711 193.107,65.1711 194.5,64C 198.869,63.5752 203.203,63.9085 207.5,65C 208.667,65.5 209.5,66.3333 210,67.5C 214.533,63.8591 219.7,62.3591 225.5,63C 233.658,63.9794 239.991,67.8128 244.5,74.5 Z M 198.5,67.5 C 198.918,68.2216 199.584,68.7216 200.5,69C 199.584,69.2784 198.918,69.7784 198.5,70.5C 197.504,70.4142 196.671,70.7476 196,71.5C 195.51,70.2068 195.343,68.8734 195.5,67.5C 196.5,67.5 197.5,67.5 198.5,67.5 Z M 235.5,70.5 C 235.5,71.1667 235.167,71.5 234.5,71.5C 231.986,70.6744 229.319,70.5078 226.5,71C 229.545,68.081 232.545,67.9144 235.5,70.5 Z M 219.5,71.5 C 218.486,72.6737 217.153,73.3404 215.5,73.5C 214.833,73.5 214.5,73.1667 214.5,72.5C 216.117,71.962 217.784,71.6287 219.5,71.5 Z M 200.5,74.5 C 200.5,75.1667 200.5,75.8333 200.5,76.5C 200.167,76.5 199.833,76.5 199.5,76.5C 198.167,76.8333 196.833,77.1667 195.5,77.5C 195.75,76.0779 196.583,75.0779 198,74.5C 198.77,75.5981 199.603,75.5981 200.5,74.5 Z M 203.5,76.5 C 204.167,76.5 204.833,76.5 205.5,76.5C 206.791,76.2627 207.791,76.596 208.5,77.5C 206.784,77.6287 205.117,77.962 203.5,78.5C 203.5,77.8333 203.5,77.1667 203.5,76.5 Z M 198.5,85.5 C 197.508,85.3284 196.842,85.6618 196.5,86.5C 196.167,86.5 195.833,86.5 195.5,86.5C 195.604,84.2972 196.27,82.2972 197.5,80.5C 198.222,80.0825 198.722,79.4158 199,78.5C 199.703,80.9291 199.537,83.2625 198.5,85.5 Z M 225.5,80.5 C 222.493,83.4804 218.826,85.147 214.5,85.5C 215.167,84.1667 216.167,83.1667 217.5,82.5C 220.006,81.2504 222.673,80.5838 225.5,80.5 Z M 205.5,89.5 C 205.5,88.8333 205.5,88.1667 205.5,87.5C 210.604,86.4526 210.604,87.1192 205.5,89.5 Z M 232.5,87.5 C 233.242,92.8498 233.742,98.1831 234,103.5C 231.98,107.02 229.147,109.686 225.5,111.5C 224.5,111.5 223.5,111.5 222.5,111.5C 221.097,105.046 221.597,98.7122 224,92.5C 226.019,89.2882 228.853,87.6216 232.5,87.5 Z M 199.5,92.5 C 199.5,93.1667 199.5,93.8333 199.5,94.5C 196.956,97.3065 195.956,96.6399 196.5,92.5C 197.5,92.5 198.5,92.5 199.5,92.5 Z M 213.5,95.5 C 215.933,95.7856 215.933,96.4523 213.5,97.5C 213.5,96.8333 213.5,96.1667 213.5,95.5 Z M 200.5,98.5 C 200.5,99.1667 200.5,99.8333 200.5,100.5C 199.167,101.167 197.833,101.833 196.5,102.5C 195.662,102.158 195.328,101.492 195.5,100.5C 196.552,98.744 198.219,98.0773 200.5,98.5 Z M 196.5,105.5 C 197.791,105.263 198.791,105.596 199.5,106.5C 198.417,106.539 197.417,106.873 196.5,107.5C 195.227,106.743 195.227,106.077 196.5,105.5 Z M 197.5,109.5 C 197.577,110.75 198.244,111.583 199.5,112C 198.944,112.383 198.611,112.883 198.5,113.5C 196.876,115.137 195.876,114.803 195.5,112.5C 195.453,110.962 196.12,109.962 197.5,109.5 Z M 242.5,110.5 C 242.167,111.833 241.833,113.167 241.5,114.5C 236.166,115.834 230.833,117.167 225.5,118.5C 225.5,117.833 225.5,117.167 225.5,116.5C 228.968,115.899 232.301,114.899 235.5,113.5C 238.206,113.312 240.539,112.312 242.5,110.5 Z M 247.5,112.5 C 244.999,112.489 244.832,111.822 247,110.5C 247.464,111.094 247.631,111.761 247.5,112.5 Z M 218.5,115.5 C 219.757,116.623 219.424,117.289 217.5,117.5C 217.833,116.833 218.167,116.167 218.5,115.5 Z M 197.5,118.5 C 198.338,118.842 198.672,119.508 198.5,120.5C 197.176,121.85 196.176,121.683 195.5,120C 195.836,118.97 196.503,118.47 197.5,118.5 Z M 220.5,122.5 C 220.833,122.5 221.167,122.5 221.5,122.5C 222.492,122.328 223.158,122.662 223.5,123.5C 222.391,123.557 221.391,123.89 220.5,124.5C 219.494,124.062 219.494,123.396 220.5,122.5 Z M 203.5,130.5 C 203.5,129.833 203.5,129.167 203.5,128.5C 207.508,127.892 207.508,128.559 203.5,130.5 Z M 197.5,133.5 C 198.833,133.5 199.5,134.167 199.5,135.5C 196.642,137.124 195.975,136.457 197.5,133.5 Z M 197.5,139.5 C 198.167,139.5 198.833,139.5 199.5,139.5C 199.218,140.778 198.551,141.778 197.5,142.5C 197.167,142.5 196.833,142.5 196.5,142.5C 196.557,141.391 196.89,140.391 197.5,139.5 Z M 198.5,149.5 C 198.5,149.833 198.5,150.167 198.5,150.5C 197.351,150.209 196.684,149.376 196.5,148C 196.833,147.167 197.167,146.333 197.5,145.5C 197.833,145.667 198.167,145.833 198.5,146C 197.209,147.292 197.209,148.458 198.5,149.5 Z"/></g>
<g><path style="opacity:1" fill="#ba2d1b" d="M 173.5,75.5 C 178.26,83.2839 180.927,91.7839 181.5,101C 180.901,110.723 176.234,117.556 167.5,121.5C 167.167,121.5 166.833,121.5 166.5,121.5C 165.833,121.5 165.5,121.833 165.5,122.5C 164.508,122.328 163.842,122.662 163.5,123.5C 163.167,123.5 162.833,123.5 162.5,123.5C 157.136,124.787 151.802,124.787 146.5,123.5C 145.833,123.5 145.167,123.5 144.5,123.5C 143.167,122.833 141.833,122.167 140.5,121.5C 139.833,121.5 139.167,121.5 138.5,121.5C 135.744,119.796 132.744,118.463 129.5,117.5C 121.657,112.827 117.657,105.827 117.5,96.5C 118.319,90.3754 120.319,84.7087 123.5,79.5C 129.218,69.6295 137.884,64.2962 149.5,63.5C 156.993,64.7193 163.993,67.2193 170.5,71C 171.883,72.2708 172.883,73.7708 173.5,75.5 Z M 136.5,74.5 C 140.339,74.6121 140.339,75.2787 136.5,76.5C 135.537,76.0302 135.537,75.3635 136.5,74.5 Z M 131.5,76.5 C 132.552,76.3505 133.552,76.5172 134.5,77C 132.884,77.6152 131.551,78.6152 130.5,80C 129.5,80.6667 128.5,80.6667 127.5,80C 128.252,79.3292 128.586,78.4959 128.5,77.5C 129.791,77.7373 130.791,77.404 131.5,76.5 Z M 142.5,84.5 C 143.799,82.9014 145.465,82.4014 147.5,83C 145.975,84.0086 144.308,84.5086 142.5,84.5 Z M 147.5,85.5 C 148.239,85.369 148.906,85.5357 149.5,86C 147.43,86.9476 145.93,88.4476 145,90.5C 144.294,88.0448 145.127,86.3781 147.5,85.5 Z M 159.5,87.5 C 160.559,92.4477 160.726,97.4477 160,102.5C 156.653,107.448 152.153,109.114 146.5,107.5C 146.416,100.586 148.416,94.4194 152.5,89C 154.76,87.1499 157.094,86.6499 159.5,87.5 Z M 127.5,89.5 C 128.492,89.3284 129.158,89.6618 129.5,90.5C 127.45,90.9612 125.45,91.6279 123.5,92.5C 122.304,92.1543 122.304,91.6543 123.5,91C 124.745,90.2086 126.078,89.7086 127.5,89.5 Z M 125.5,95.5 C 126.492,95.3284 127.158,95.6618 127.5,96.5C 126.041,96.4326 124.708,96.7659 123.5,97.5C 122.833,97.5 122.5,97.1667 122.5,96.5C 123.391,95.8902 124.391,95.5569 125.5,95.5 Z M 163.5,99.5 C 163.833,99.5 164.167,99.5 164.5,99.5C 166.975,99.7467 166.975,100.413 164.5,101.5C 163.702,101.043 163.369,100.376 163.5,99.5 Z M 173.5,107.5 C 174.492,107.328 175.158,107.662 175.5,108.5C 173.973,108.427 172.973,109.094 172.5,110.5C 171.662,110.158 171.328,109.492 171.5,108.5C 172.167,108.167 172.833,107.833 173.5,107.5 Z M 163.5,110.5 C 161.469,112.522 159.135,114.189 156.5,115.5C 155.833,115.167 155.167,114.833 154.5,114.5C 154.158,113.662 153.492,113.328 152.5,113.5C 151.833,113.5 151.5,113.167 151.5,112.5C 155.605,113.149 159.605,112.483 163.5,110.5 Z"/></g>
<g><path style="opacity:1" fill="#e5b835" d="M 368.5,75.5 C 373.053,82.9945 375.72,91.1612 376.5,100C 376.166,105.175 374.833,110.008 372.5,114.5C 371.833,114.5 371.5,114.833 371.5,115.5C 368.477,117.533 365.477,119.533 362.5,121.5C 362.167,121.5 361.833,121.5 361.5,121.5C 360.833,121.5 360.5,121.833 360.5,122.5C 359.508,122.328 358.842,122.662 358.5,123.5C 358.167,123.5 357.833,123.5 357.5,123.5C 352.136,124.787 346.802,124.787 341.5,123.5C 340.833,123.5 340.167,123.5 339.5,123.5C 334.617,121.226 329.617,119.226 324.5,117.5C 316.808,112.966 312.808,106.133 312.5,97C 312.566,94.7446 312.899,92.578 313.5,90.5C 313.833,89.1667 314.167,87.8333 314.5,86.5C 314.5,86.1667 314.5,85.8333 314.5,85.5C 325.988,63.9575 342.655,58.7908 364.5,70C 366.439,71.4321 367.772,73.2654 368.5,75.5 Z M 334.5,74.5 C 334.5,74.8333 334.5,75.1667 334.5,75.5C 333.153,76.0283 331.819,76.195 330.5,76C 331.563,74.8118 332.897,74.3118 334.5,74.5 Z M 326.5,76.5 C 327.552,76.3505 328.552,76.5172 329.5,77C 327.884,77.6152 326.551,78.6152 325.5,80C 324.5,80.6667 323.5,80.6667 322.5,80C 323.252,79.3292 323.586,78.4959 323.5,77.5C 324.791,77.7373 325.791,77.404 326.5,76.5 Z M 335.5,85.5 C 335.5,84.8333 335.833,84.5 336.5,84.5C 338.052,83.3782 339.718,82.8782 341.5,83C 339.842,84.6625 337.842,85.4959 335.5,85.5 Z M 340.5,86.5 C 341.376,86.3691 342.043,86.7025 342.5,87.5C 339.74,91.564 339.074,91.2307 340.5,86.5 Z M 354.5,87.5 C 355.383,92.1031 355.717,96.7697 355.5,101.5C 354.11,102.899 353.11,104.566 352.5,106.5C 348.895,108.295 345.228,108.628 341.5,107.5C 341.818,101.959 342.985,96.6258 345,91.5C 347.632,88.2495 350.799,86.9161 354.5,87.5 Z M 320.5,89.5 C 321.873,89.3433 323.207,89.51 324.5,90C 322.253,91.3088 319.92,91.9755 317.5,92C 318.571,91.1482 319.571,90.3149 320.5,89.5 Z M 358.5,99.5 C 358.833,99.5 359.167,99.5 359.5,99.5C 360.773,100.077 360.773,100.743 359.5,101.5C 358.702,101.043 358.369,100.376 358.5,99.5 Z M 366.5,108.5 C 367.167,108.5 367.833,108.5 368.5,108.5C 368.167,109.5 367.5,110.167 366.5,110.5C 366.5,109.833 366.5,109.167 366.5,108.5 Z M 358.5,110.5 C 356.469,112.522 354.135,114.189 351.5,115.5C 350.833,115.167 350.167,114.833 349.5,114.5C 348.737,113.732 347.737,113.232 346.5,113C 348.425,111.405 350.425,111.238 352.5,112.5C 354.45,111.628 356.45,110.961 358.5,110.5 Z"/></g>
<g><path style="opacity:1" fill="#2c4b9b" d="M 305.5,74.5 C 305.5,77.1667 305.5,79.8333 305.5,82.5C 305.167,82.5 304.833,82.5 304.5,82.5C 302.5,81.5 300.5,80.5 298.5,79.5C 298.167,79.5 297.833,79.5 297.5,79.5C 293.818,79.3347 290.152,79.5014 286.5,80C 282.582,81.083 280.248,83.583 279.5,87.5C 278.549,88.9187 278.216,90.5853 278.5,92.5C 278.04,97.4892 279.04,102.156 281.5,106.5C 283.243,108.038 285.243,109.038 287.5,109.5C 289.342,109.723 291.175,110.057 293,110.5C 297.009,109.383 300.843,108.217 304.5,107C 306.002,110.005 307.002,113.171 307.5,116.5C 307.267,118.062 306.6,119.395 305.5,120.5C 305.5,120.833 305.5,121.167 305.5,121.5C 304.167,121.833 302.833,122.167 301.5,122.5C 300.209,122.263 299.209,122.596 298.5,123.5C 293.833,123.5 289.167,123.5 284.5,123.5C 284.167,123.5 283.833,123.5 283.5,123.5C 281.073,123.477 278.74,122.977 276.5,122C 274.595,120.579 272.595,119.412 270.5,118.5C 265.968,115.637 262.968,111.637 261.5,106.5C 261.5,106.167 261.5,105.833 261.5,105.5C 261.5,105.167 261.5,104.833 261.5,104.5C 260.793,101.214 260.46,97.8806 260.5,94.5C 260.515,72.66 271.515,62.8267 293.5,65C 297.544,65.8558 301.211,67.5224 304.5,70C 305.38,71.3561 305.714,72.8561 305.5,74.5 Z M 284.5,70.5 C 284.517,68.9719 285.184,68.4719 286.5,69C 285.956,69.7172 285.289,70.2172 284.5,70.5 Z M 290.5,71.5 C 291.614,68.5927 293.281,68.0927 295.5,70C 293.975,71.0086 292.308,71.5086 290.5,71.5 Z M 277.5,70.5 C 277.5,70.8333 277.5,71.1667 277.5,71.5C 276.833,71.5 276.5,71.8333 276.5,72.5C 275.504,72.4142 274.671,72.7476 274,73.5C 273.536,72.9056 273.369,72.2389 273.5,71.5C 274.833,71.1667 276.167,70.8333 277.5,70.5 Z M 279.5,76.5 C 279.5,76.8333 279.5,77.1667 279.5,77.5C 276.478,78.5222 274.478,80.5222 273.5,83.5C 272.609,84.1098 271.609,84.4431 270.5,84.5C 268.517,84.8432 267.183,84.1765 266.5,82.5C 269.669,81.0834 272.669,79.4168 275.5,77.5C 276.833,77.1667 278.167,76.8333 279.5,76.5 Z M 295.5,113.5 C 295.833,113.5 296.167,113.5 296.5,113.5C 297.167,113.5 297.5,113.833 297.5,114.5C 297.5,114.833 297.5,115.167 297.5,115.5C 296.167,115.5 295.5,114.833 295.5,113.5 Z M 302.5,115.5 C 302.5,115.833 302.5,116.167 302.5,116.5C 301.508,116.328 300.842,116.662 300.5,117.5C 300.167,117.5 299.833,117.5 299.5,117.5C 298.262,117.19 298.262,116.69 299.5,116C 300.416,115.626 301.25,115.126 302,114.5C 302.399,114.728 302.565,115.062 302.5,115.5 Z"/></g>
<g><path style="opacity:1" fill="#b82716" d="M 424.5,73.5 C 423.549,74.9187 423.216,76.5853 423.5,78.5C 423.5,79.1667 423.5,79.8333 423.5,80.5C 420.572,81.1975 417.572,81.3642 414.5,81C 410.656,82.3467 407.989,84.8467 406.5,88.5C 406.5,89.8333 406.5,91.1667 406.5,92.5C 405.167,97.1667 405.167,101.833 406.5,106.5C 406.5,110.5 406.5,114.5 406.5,118.5C 406.5,121.5 406.5,124.5 406.5,127.5C 404.5,127.5 402.5,127.5 400.5,127.5C 399.833,127.5 399.167,127.5 398.5,127.5C 396.833,127.5 395.167,127.5 393.5,127.5C 389.623,127.946 386.956,126.446 385.5,123C 386.426,103.855 386.593,84.6881 386,65.5C 386.725,64.9415 387.558,64.6082 388.5,64.5C 393.47,65.2286 398.47,65.7286 403.5,66C 404.119,67.7571 405.286,68.9238 407,69.5C 412.681,67.2651 418.515,66.0985 424.5,66C 425.136,68.3938 425.136,70.8938 424.5,73.5 Z"/></g>
<g><path style="opacity:0.37" fill="#c5d0e5" d="M 62.5,72.5 C 63.1157,71.2022 63.1157,70.2022 62.5,69.5C 64.3162,67.8634 66.3162,66.3634 68.5,65C 69.635,64.2506 70.635,64.4173 71.5,65.5C 70.675,66.3857 69.675,66.719 68.5,66.5C 67.5677,69.4327 65.5677,71.4327 62.5,72.5 Z"/></g>
<g><path style="opacity:0.008" fill="#e9f3e8" d="M 220.5,66.5 C 220.5,66.8333 220.5,67.1667 220.5,67.5C 218.488,68.0138 216.488,68.1805 214.5,68C 216.345,66.872 218.345,66.372 220.5,66.5 Z"/></g>
<g><path style="opacity:0.741" fill="#c0dfbe" d="M 454.5,65.5 C 459.564,65.6985 459.397,66.3651 454,67.5C 453.5,67.3333 453,67.1667 452.5,67C 453.416,66.7216 454.082,66.2216 454.5,65.5 Z"/></g>
<g><path style="opacity:0.169" fill="#c5d0e5" d="M 113.5,66.5 C 114.391,67.1098 115.391,67.4431 116.5,67.5C 116.167,68.5 115.5,69.1667 114.5,69.5C 113.89,68.609 113.557,67.609 113.5,66.5 Z"/></g>
<g><path style="opacity:0.596" fill="#c6e2c5" d="M 222.5,66.5 C 226.339,66.6121 226.339,67.2787 222.5,68.5C 221.893,68.3764 221.56,68.0431 221.5,67.5C 222.167,67.5 222.5,67.1667 222.5,66.5 Z"/></g>
<g><path style="opacity:1" fill="#9fce9b" d="M 466.5,66.5 C 471.564,66.6985 471.397,67.3651 466,68.5C 465.5,68.3333 465,68.1667 464.5,68C 465.416,67.7216 466.082,67.2216 466.5,66.5 Z"/></g>
<g><path style="opacity:0.294" fill="#b3c1dc" d="M 110.5,67.5 C 108.067,68.5477 108.067,69.2144 110.5,69.5C 111.167,69.5 111.5,69.8333 111.5,70.5C 111.5,70.8333 111.5,71.1667 111.5,71.5C 110.167,72.1667 110.167,72.8333 111.5,73.5C 111.737,74.791 111.404,75.791 110.5,76.5C 107.986,75.6744 105.319,75.5078 102.5,76C 111.933,70.9981 111.433,69.8315 101,72.5C 99.605,72.2196 98.4383,71.5529 97.5,70.5C 98.9394,68.4469 100.939,67.4469 103.5,67.5C 102.939,70.1867 103.606,70.1867 105.5,67.5C 107.17,67.2488 108.67,66.5822 110,65.5C 110.464,66.0944 110.631,66.7611 110.5,67.5 Z"/></g>
<g><path style="opacity:0.99" fill="#28519e" d="M 103.5,67.5 C 104.167,67.5 104.833,67.5 105.5,67.5C 103.606,70.1867 102.939,70.1867 103.5,67.5 Z"/></g>
<g><path style="opacity:0.247" fill="#adbcda" d="M 277.5,71.5 C 277.5,71.1667 277.5,70.8333 277.5,70.5C 278.151,69.9094 278.818,69.2427 279.5,68.5C 280.639,70.3957 279.973,71.3957 277.5,71.5 Z"/></g>
<g><path style="opacity:1" fill="#fbf3f2" d="M 392.5,68.5 C 403.837,68.6362 403.504,70.3028 391.5,73.5C 389.889,72.6798 389.222,71.3464 389.5,69.5C 390.791,69.7373 391.791,69.404 392.5,68.5 Z"/></g>
<g><path style="opacity:0.306" fill="#f0d2d0" d="M 139.5,68.5 C 143.221,68.7926 143.055,69.4593 139,70.5C 138.5,70.3333 138,70.1667 137.5,70C 138.416,69.7216 139.082,69.2216 139.5,68.5 Z"/></g>
<g><path style="opacity:1" fill="#97c991" d="M 198.5,67.5 C 201.155,67.6586 203.488,68.6586 205.5,70.5C 205.376,71.1067 205.043,71.44 204.5,71.5C 204.44,70.9569 204.107,70.6236 203.5,70.5C 202.269,72.4499 200.602,73.2832 198.5,73C 200.842,71.6081 200.842,70.7748 198.5,70.5C 198.918,69.7784 199.584,69.2784 200.5,69C 199.584,68.7216 198.918,68.2216 198.5,67.5 Z"/></g>
<g><path style="opacity:0.306" fill="#f9efd3" d="M 334.5,68.5 C 338.221,68.7926 338.055,69.4593 334,70.5C 333.5,70.3333 333,70.1667 332.5,70C 333.416,69.7216 334.082,69.2216 334.5,68.5 Z"/></g>
<g><path style="opacity:0.587" fill="#f8e8e7" d="M 418.5,68.5 C 419.552,68.3505 420.552,68.5172 421.5,69C 419.125,72.937 416.459,73.6037 413.5,71C 415.315,70.2432 416.981,69.4098 418.5,68.5 Z"/></g>
<g><path style="opacity:0.314" fill="#c4e1c3" d="M 470.5,69.5 C 472.199,69.3398 473.866,69.5065 475.5,70C 472.28,71.5251 468.947,72.1917 465.5,72C 467.315,71.2432 468.981,70.4098 470.5,69.5 Z"/></g>
<g><path style="opacity:0.345" fill="#c9d4e6" d="M 61.5,78.5 C 62.6005,77.3951 63.2671,76.0618 63.5,74.5C 63.5,74.1667 63.5,73.8333 63.5,73.5C 65.8162,72.1944 68.1495,70.8611 70.5,69.5C 71.4287,70.6888 71.762,72.0222 71.5,73.5C 69.549,73.2267 68.049,73.8934 67,75.5C 66.6667,75.1667 66.3333,74.8333 66,74.5C 65.1237,76.6355 63.6237,77.9688 61.5,78.5 Z"/></g>
<g><path style="opacity:0.065" fill="#fcfcfd" d="M 88.5,66.5 C 86.9581,67.1635 85.2914,67.8302 83.5,68.5C 83.0688,69.2935 82.7355,70.1268 82.5,71C 84.3262,75.2392 85.3262,79.4059 85.5,83.5C 85.1667,83.5 84.8333,83.5 84.5,83.5C 82.9677,78.36 82.1343,73.0266 82,67.5C 84.0408,66.5769 86.2075,66.2436 88.5,66.5 Z"/></g>
<g><path style="opacity:0.327" fill="#d2e8d2" d="M 235.5,70.5 C 236.833,71.1667 237.833,72.1667 238.5,73.5C 236.801,73.6602 235.134,73.4935 233.5,73C 234.056,72.6174 234.389,72.1174 234.5,71.5C 235.167,71.5 235.5,71.1667 235.5,70.5 Z"/></g>
<g><path style="opacity:0.239" fill="#d8e0ed" d="M 289.5,71.5 C 289.483,73.0281 288.816,73.5281 287.5,73C 288.044,72.2828 288.711,71.7828 289.5,71.5 Z"/></g>
<g><path style="opacity:1" fill="#a3d1a1" d="M 458.5,67.5 C 460.347,67.2342 461.014,67.5675 460.5,68.5C 456.232,70.5325 451.899,72.0325 447.5,73C 451.125,71.017 454.792,69.1837 458.5,67.5 Z"/></g>
<g><path style="opacity:0.161" fill="#c9e3c8" d="M 459.5,70.5 C 461.347,70.2342 462.014,70.5675 461.5,71.5C 458.585,72.9765 455.585,73.8098 452.5,74C 454.925,72.7874 457.259,71.6207 459.5,70.5 Z"/></g>
<g><path style="opacity:0.545" fill="#b7dbb7" d="M 200.5,76.5 C 200.5,75.8333 200.5,75.1667 200.5,74.5C 202.137,73.7822 203.803,73.6155 205.5,74C 203.807,74.8466 202.14,75.6799 200.5,76.5 Z"/></g>
<g><path style="opacity:0.256" fill="#c9e4c8" d="M 214.5,72.5 C 214.5,73.1667 214.833,73.5 215.5,73.5C 213.66,75.6689 211.326,77.0023 208.5,77.5C 207.791,76.596 206.791,76.2627 205.5,76.5C 208.256,74.7962 211.256,73.4629 214.5,72.5 Z"/></g>
<g><path style="opacity:0.282" fill="#b5c4dd" d="M 298.5,73.5 C 299.5,73.5 300.5,73.5 301.5,73.5C 301.33,74.8221 301.663,75.9887 302.5,77C 299.743,77.5837 297.077,77.2504 294.5,76C 295.858,75.0656 297.192,74.2323 298.5,73.5 Z"/></g>
<g><path style="opacity:1" fill="#7789be" d="M 59.5,66.5 C 59.5,67.1667 59.8333,67.5 60.5,67.5C 60.5,68.1667 60.5,68.8333 60.5,69.5C 59.4017,70.6009 59.235,71.9343 60,73.5C 60.6708,72.7476 61.5041,72.4142 62.5,72.5C 62.5,73.1667 62.8333,73.5 63.5,73.5C 63.5,73.8333 63.5,74.1667 63.5,74.5C 61.7376,75.2623 60.7376,76.5956 60.5,78.5C 59.9976,80.0847 58.9976,80.5847 57.5,80C 58.5742,79.2613 59.2409,78.2613 59.5,77C 58.2458,73.3538 58.2458,69.8538 59.5,66.5 Z"/></g>
<g><path style="opacity:0.276" fill="#e4aaa6" d="M 145.5,75.5 C 148.621,72.5622 151.954,72.2289 155.5,74.5C 160.76,73.5837 160.76,73.917 155.5,75.5C 152.153,74.1731 148.82,74.1731 145.5,75.5 Z"/></g>
<g><path style="opacity:0.325" fill="#b4d9b2" d="M 238.5,73.5 C 240.017,73.5106 241.184,74.1772 242,75.5C 242.528,76.816 242.028,77.4827 240.5,77.5C 240.44,76.9569 240.107,76.6236 239.5,76.5C 237.807,78.2786 235.807,78.7786 233.5,78C 236.309,77.6878 237.976,76.1878 238.5,73.5 Z"/></g>
<g><path style="opacity:1" fill="#6e80ba" d="M 283.5,70.5 C 283.063,72.0744 282.063,73.2411 280.5,74C 282.742,75.0074 282.408,75.8407 279.5,76.5C 278.167,76.8333 276.833,77.1667 275.5,77.5C 274.402,76.603 274.402,75.7697 275.5,75C 273.086,75.8266 271.086,75.6599 269.5,74.5C 270.467,73.016 271.8,72.016 273.5,71.5C 273.369,72.2389 273.536,72.9056 274,73.5C 274.671,72.7476 275.504,72.4142 276.5,72.5C 276.735,73.0967 277.235,73.4301 278,73.5C 279.765,72.3679 281.598,71.3679 283.5,70.5 Z"/></g>
<g><path style="opacity:0.509" fill="#f4e2ad" d="M 340.5,75.5 C 343.621,72.5622 346.954,72.2289 350.5,74.5C 355.76,73.5837 355.76,73.917 350.5,75.5C 347.153,74.1731 343.82,74.1731 340.5,75.5 Z"/></g>
<g><path style="opacity:1" fill="#e8b8b5" d="M 399.5,73.5 C 401.976,74.8153 401.642,75.982 398.5,77C 396.782,77.346 395.115,77.846 393.5,78.5C 392.692,78.1924 392.025,77.6924 391.5,77C 394.122,75.5252 396.788,74.3586 399.5,73.5 Z"/></g>
<g><path style="opacity:0.976" fill="#d5ead5" d="M 482.5,71.5 C 488.325,74.4951 492.158,79.1618 494,85.5C 496.658,100.73 497.991,116.064 498,131.5C 497.5,132 497,132.5 496.5,133C 491.823,132.454 487.156,132.62 482.5,133.5C 481.558,133.392 480.725,133.059 480,132.5C 479.503,129.854 479.336,127.187 479.5,124.5C 482.833,124.5 486.167,124.5 489.5,124.5C 489.043,111.812 488.21,99.1454 487,86.5C 486.435,81.1369 484.935,76.1369 482.5,71.5 Z"/></g>
<g><path style="opacity:0.889" fill="#cdd8e8" d="M 305.5,74.5 C 311.864,75.5217 314.864,79.1884 314.5,85.5C 313.167,85.8333 313.167,86.1667 314.5,86.5C 314.167,87.8333 313.833,89.1667 313.5,90.5C 309.355,89.0486 305.022,88.0486 300.5,87.5C 293.331,87.3261 288.831,90.6594 287,97.5C 286.503,101.524 286.669,105.524 287.5,109.5C 285.243,109.038 283.243,108.038 281.5,106.5C 279.04,102.156 278.04,97.4892 278.5,92.5C 282.206,92.5014 284.539,90.8347 285.5,87.5C 289.693,87.0474 293.693,85.8808 297.5,84C 294.695,83.5585 292.028,84.0585 289.5,85.5C 288.833,85.3333 288.167,85.1667 287.5,85C 288.696,84.3457 288.696,83.8457 287.5,83.5C 284.807,84.8466 282.14,86.1799 279.5,87.5C 280.248,83.583 282.582,81.083 286.5,80C 290.152,79.5014 293.818,79.3347 297.5,79.5C 297.833,80.8333 298.167,80.8333 298.5,79.5C 300.5,80.5 302.5,81.5 304.5,82.5C 302.946,83.8946 303.279,84.5613 305.5,84.5C 309.315,83.3784 309.315,82.7117 305.5,82.5C 305.5,79.8333 305.5,77.1667 305.5,74.5 Z M 304.5,82.5 C 304.833,82.5 305.167,82.5 305.5,82.5C 309.315,82.7117 309.315,83.3784 305.5,84.5C 303.279,84.5613 302.946,83.8946 304.5,82.5 Z"/></g>
<g><path style="opacity:1" fill="#dc8d86" d="M 407.5,72.5 C 408.239,72.369 408.906,72.5357 409.5,73C 407.92,75.2951 405.92,76.6284 403.5,77C 405.041,75.6288 406.375,74.1288 407.5,72.5 Z"/></g>
<g><path style="opacity:0.319" fill="#c4e1c3" d="M 467.5,73.5 C 468.552,73.3505 469.552,73.5172 470.5,74C 468.667,75.1667 466.833,76.3333 465,77.5C 464.25,76.8742 463.416,76.3742 462.5,76C 464.315,75.2432 465.981,74.4098 467.5,73.5 Z"/></g>
<g><path style="opacity:1" fill="#b2c1dc" d="M 68.5,75.5 C 69.5,75.5 70.5,75.5 71.5,75.5C 71.5,76.5 71.5,77.5 71.5,78.5C 69.0846,78.6265 66.7513,78.7932 64.5,79C 66.0931,78.0513 67.4264,76.8846 68.5,75.5 Z"/></g>
<g><path style="opacity:0.133" fill="#ecc4c1" d="M 131.5,76.5 C 130.791,77.404 129.791,77.7373 128.5,77.5C 129.105,75.5188 130.105,75.1854 131.5,76.5 Z"/></g>
<g><path style="opacity:0.125" fill="#f7ebc5" d="M 326.5,76.5 C 325.791,77.404 324.791,77.7373 323.5,77.5C 324.105,75.5188 325.105,75.1854 326.5,76.5 Z"/></g>
<g><path style="opacity:0.845" fill="#bbddba" d="M 473.5,75.5 C 474.873,75.3433 476.207,75.51 477.5,76C 474.446,78.208 471.113,79.208 467.5,79C 470.025,78.5762 472.025,77.4095 473.5,75.5 Z"/></g>
<g><path style="opacity:0.208" fill="#eecbc9" d="M 160.5,79.5 C 159.226,78.8106 159.226,77.9772 160.5,77C 161.5,76.3333 162.5,76.3333 163.5,77C 162.058,77.3768 161.058,78.2101 160.5,79.5 Z"/></g>
<g><path style="opacity:0.302" fill="#b7c6de" d="M 276.5,82.5 C 275.609,83.1098 274.609,83.4431 273.5,83.5C 274.478,80.5222 276.478,78.5222 279.5,77.5C 283.492,76.3286 287.492,75.4953 291.5,75C 287.108,77.4085 282.442,78.9085 277.5,79.5C 277.737,80.791 277.404,81.791 276.5,82.5 Z"/></g>
<g><path style="opacity:1" fill="#f8edcc" d="M 355.5,79.5 C 354.226,78.8106 354.226,77.9772 355.5,77C 356.5,76.3333 357.5,76.3333 358.5,77C 357.058,77.3768 356.058,78.2101 355.5,79.5 Z"/></g>
<g><path style="opacity:1" fill="#eecac7" d="M 418.5,73.5 C 419.807,75.2232 419.807,77.0565 418.5,79C 415.833,79.3333 413.167,79.6667 410.5,80C 407.833,82 405.167,84 402.5,86C 387.247,89.1842 386.58,87.3508 400.5,80.5C 401.293,81.3554 400.96,82.1887 399.5,83C 400.5,83.6667 401.5,83.6667 402.5,83C 407.434,79.038 412.767,75.8713 418.5,73.5 Z"/></g>
<g><path style="opacity:0.118" fill="#f6e3b1" d="M 340.5,75.5 C 336.355,77.8394 333.189,81.1727 331,85.5C 330.383,84.5509 330.549,83.7175 331.5,83C 329.833,82.6667 328.167,82.3333 326.5,82C 328.852,81.7599 330.852,80.9265 332.5,79.5C 333.64,78.1986 334.973,77.0319 336.5,76C 335.906,75.5357 335.239,75.369 334.5,75.5C 334.5,75.1667 334.5,74.8333 334.5,74.5C 334.5,73.8333 334.833,73.5 335.5,73.5C 335.435,73.9382 335.601,74.2716 336,74.5C 336.308,73.6919 336.808,73.0253 337.5,72.5C 338.506,72.9377 338.506,73.6043 337.5,74.5C 338.325,75.3857 339.325,75.719 340.5,75.5 Z"/></g>
<g><path style="opacity:1" fill="#f5e6b7" d="M 355.5,79.5 C 358.689,78.4863 361.522,76.8196 364,74.5C 364.448,76.4089 363.615,77.5756 361.5,78C 369.213,80.4595 369.213,81.7928 361.5,82C 362.956,81.5774 363.456,80.7441 363,79.5C 361.323,80.5159 359.657,81.5159 358,82.5C 356.251,82.2517 355.418,81.2517 355.5,79.5 Z"/></g>
<g><path style="opacity:1" fill="#e1f0e0" d="M 439.5,77.5 C 440.239,77.369 440.906,77.5357 441.5,78C 439.996,79.7878 438.329,80.2878 436.5,79.5C 437.602,78.8243 438.602,78.1577 439.5,77.5 Z"/></g>
<g><path style="opacity:0.903" fill="#d4e9d3" d="M 457.5,78.5 C 457.833,81.1667 458.167,81.1667 458.5,78.5C 463.368,79.0329 466.368,81.6996 467.5,86.5C 463.478,86.0184 461.478,87.8518 461.5,92C 462.678,104.676 462.678,117.509 461.5,130.5C 454.852,131.618 448.185,132.118 441.5,132C 440.556,129.281 440.223,126.448 440.5,123.5C 444.767,123.797 448.934,123.464 453,122.5C 454.064,118.252 454.564,113.919 454.5,109.5C 454.044,100.484 453.378,91.6502 452.5,83C 452.748,79.918 454.415,78.418 457.5,78.5 Z"/></g>
<g><path style="opacity:1" fill="#ebf4ea" d="M 477.5,77.5 C 482.564,77.6985 482.397,78.3651 477,79.5C 476.5,79.3333 476,79.1667 475.5,79C 476.416,78.7216 477.082,78.2216 477.5,77.5 Z"/></g>
<g><path style="opacity:0.234" fill="#b1c0dc" d="M 110.5,76.5 C 110.67,77.8221 110.337,78.9887 109.5,80C 105.892,81.3228 102.225,81.9895 98.5,82C 102.646,80.4263 106.646,78.593 110.5,76.5 Z"/></g>
<g><path style="opacity:0.924" fill="#efcfcd" d="M 173.5,75.5 C 183.443,83.1021 189.11,93.1021 190.5,105.5C 190.5,107.167 190.5,108.833 190.5,110.5C 189.614,115.97 187.281,120.804 183.5,125C 171.323,134.584 158.323,135.918 144.5,129C 137.504,127.53 132.504,123.697 129.5,117.5C 132.744,118.463 135.744,119.796 138.5,121.5C 139.167,122.833 139.833,122.833 140.5,121.5C 141.833,122.167 143.167,122.833 144.5,123.5C 145.167,124.833 145.833,124.833 146.5,123.5C 151.802,124.787 157.136,124.787 162.5,123.5C 162.833,124.833 163.167,124.833 163.5,123.5C 164.492,123.672 165.158,123.338 165.5,122.5C 165.5,121.833 165.833,121.5 166.5,121.5C 166.833,122.833 167.167,122.833 167.5,121.5C 176.234,117.556 180.901,110.723 181.5,101C 180.927,91.7839 178.26,83.2839 173.5,75.5 Z"/></g>
<g><path style="opacity:0.273" fill="#d9ecd9" d="M 225.5,80.5 C 222.673,80.5838 220.006,81.2504 217.5,82.5C 219.615,79.4828 222.282,78.8161 225.5,80.5 Z"/></g>
<g><path style="opacity:0.854" fill="#d7ebd7" d="M 244.5,74.5 C 251.353,79.1989 256.02,85.5323 258.5,93.5C 258.957,94.2975 259.624,94.6309 260.5,94.5C 260.46,97.8806 260.793,101.214 261.5,104.5C 260.167,104.833 260.167,105.167 261.5,105.5C 261.5,105.833 261.5,106.167 261.5,106.5C 263.193,121.553 256.527,131.053 241.5,135C 233.868,136.831 226.201,136.997 218.5,135.5C 218.356,142.082 219.023,148.582 220.5,155C 220.592,157.814 219.592,160.147 217.5,162C 212.5,162.779 207.5,163.112 202.5,163C 200.686,160.519 200.02,157.685 200.5,154.5C 197.941,154.802 195.607,154.468 193.5,153.5C 199.29,153.904 204.956,153.404 210.5,152C 211.676,147.547 211.676,143.047 210.5,138.5C 214.289,137.404 214.289,136.737 210.5,136.5C 210.5,133.167 210.5,129.833 210.5,126.5C 213.221,126.963 215.888,127.629 218.5,128.5C 219.167,129.833 219.833,129.833 220.5,128.5C 222.903,128.552 225.236,128.219 227.5,127.5C 229.931,128.741 229.931,129.908 227.5,131C 230.017,131.257 232.35,130.59 234.5,129C 233.216,128.316 232.049,128.483 231,129.5C 230.536,128.906 230.369,128.239 230.5,127.5C 234.309,126.564 237.975,125.23 241.5,123.5C 241.735,124.097 242.235,124.43 243,124.5C 246.808,123.468 250.475,122.135 254,120.5C 254.483,119.552 254.649,118.552 254.5,117.5C 252.079,117.878 249.746,118.545 247.5,119.5C 248.657,117.862 249.824,116.196 251,114.5C 254.625,100.049 252.458,86.7154 244.5,74.5 Z M 254.5,105.5 C 256.975,105.747 256.975,106.413 254.5,107.5C 253.537,107.03 253.537,106.363 254.5,105.5 Z M 227.5,127.5 C 228.5,127.5 229.5,127.5 230.5,127.5C 230.369,128.239 230.536,128.906 231,129.5C 232.049,128.483 233.216,128.316 234.5,129C 232.35,130.59 230.017,131.257 227.5,131C 229.931,129.908 229.931,128.741 227.5,127.5 Z"/></g>
<g><path style="opacity:0.898" fill="#f8eecf" d="M 368.5,75.5 C 376.894,81.2566 382.06,89.2566 384,99.5C 387.363,117.464 380.196,128.631 362.5,133C 350.68,133.286 339.68,130.286 329.5,124C 327.461,122.074 325.794,119.907 324.5,117.5C 329.617,119.226 334.617,121.226 339.5,123.5C 340.167,124.833 340.833,124.833 341.5,123.5C 346.802,124.787 352.136,124.787 357.5,123.5C 357.833,124.833 358.167,124.833 358.5,123.5C 359.492,123.672 360.158,123.338 360.5,122.5C 360.5,121.833 360.833,121.5 361.5,121.5C 361.833,122.833 362.167,122.833 362.5,121.5C 365.477,119.533 368.477,117.533 371.5,115.5C 373.224,115.539 373.557,115.206 372.5,114.5C 374.833,110.008 376.166,105.175 376.5,100C 375.72,91.1612 373.053,82.9945 368.5,75.5 Z M 372.5,118.5 C 374.179,116.825 376.179,115.992 378.5,116C 377.022,118.039 375.022,118.872 372.5,118.5 Z M 368.5,123.5 C 370.199,123.34 371.866,123.506 373.5,124C 371.102,125.356 368.602,126.523 366,127.5C 366.193,125.918 367.026,124.584 368.5,123.5 Z"/></g>
<g><path style="opacity:0.29" fill="#e8b8b5" d="M 145.5,75.5 C 143.747,77.2225 141.747,78.7225 139.5,80C 138.512,82.167 137.179,84.0003 135.5,85.5C 135.414,84.5041 135.748,83.6708 136.5,83C 134.833,82.6667 133.167,82.3333 131.5,82C 133.852,81.7599 135.852,80.9265 137.5,79.5C 139.579,77.127 142.246,75.7936 145.5,75.5 Z"/></g>
<g><path style="opacity:0.4" fill="#e6b1ad" d="M 160.5,79.5 C 163.689,78.4863 166.522,76.8196 169,74.5C 169.448,76.4089 168.615,77.5756 166.5,78C 174.305,80.5627 173.971,82.2294 165.5,83C 167.255,82.2801 168.089,81.1134 168,79.5C 166.323,80.5159 164.657,81.5159 163,82.5C 161.251,82.2517 160.418,81.2517 160.5,79.5 Z"/></g>
<g><path style="opacity:0.273" fill="#c2e0c1" d="M 199.5,76.5 C 200.705,77.6857 202.039,77.6857 203.5,76.5C 203.5,77.1667 203.5,77.8333 203.5,78.5C 205.033,79.3878 207.366,79.8878 210.5,80C 209.473,80.5133 208.473,81.0133 207.5,81.5C 205.036,82.876 202.036,84.2093 198.5,85.5C 199.537,83.2625 199.703,80.9291 199,78.5C 198.722,79.4158 198.222,80.0825 197.5,80.5C 197.218,79.2223 196.551,78.2223 195.5,77.5C 196.833,77.1667 198.167,76.8333 199.5,76.5 Z"/></g>
<g><path style="opacity:0.827" fill="#d0e8d0" d="M 225.5,80.5 C 229.5,81.1667 231.833,83.5 232.5,87.5C 228.853,87.6216 226.019,89.2882 224,92.5C 221.597,98.7122 221.097,105.046 222.5,111.5C 223.5,111.5 224.5,111.5 225.5,111.5C 218.784,112.822 215.118,109.822 214.5,102.5C 213.549,101.081 213.216,99.4147 213.5,97.5C 215.933,96.4523 215.933,95.7856 213.5,95.5C 212.726,91.758 214.059,89.258 217.5,88C 215.881,87.7645 214.881,86.9311 214.5,85.5C 218.826,85.147 222.493,83.4804 225.5,80.5 Z"/></g>
<g><path style="opacity:0.31" fill="#bfdfbe" d="M 234.5,79.5 C 238.102,79.678 238.102,80.678 234.5,82.5C 233.438,81.5754 233.438,80.5754 234.5,79.5 Z"/></g>
<g><path style="opacity:0.602" fill="#e2e8f2" d="M 60.5,86.5 C 59.596,85.791 59.2627,84.791 59.5,83.5C 59.62,82.4138 60.2867,81.7472 61.5,81.5C 63.4731,80.6689 65.4731,80.5022 67.5,81C 64.7339,82.371 62.4006,84.2043 60.5,86.5 Z"/></g>
<g><path style="opacity:1" fill="#e8f3e8" d="M 242.5,79.5 C 244.705,79.8459 244.872,80.5126 243,81.5C 241.535,82.3295 240.035,82.4962 238.5,82C 240.066,81.3918 241.4,80.5585 242.5,79.5 Z"/></g>
<g><path style="opacity:1" fill="#ecc3c0" d="M 391.5,80.5 C 395.009,81.1528 394.676,82.1528 390.5,83.5C 390.167,83.1667 389.833,82.8333 389.5,82.5C 390.243,81.8182 390.909,81.1515 391.5,80.5 Z"/></g>
<g><path style="opacity:0.995" fill="#fcf8f8" d="M 406.5,92.5 C 406.5,91.1667 406.5,89.8333 406.5,88.5C 409.999,88.259 410.332,89.0924 407.5,91C 408,91.1667 408.5,91.3333 409,91.5C 414.532,87.3988 420.532,84.0654 427,81.5C 427.743,83.4406 427.576,85.2739 426.5,87C 423.044,87.1802 419.711,87.8468 416.5,89C 413.16,92.5337 409.993,95.367 407,97.5C 406.506,95.8659 406.34,94.1992 406.5,92.5 Z"/></g>
<g><path style="opacity:0.246" fill="#b1c1dc" d="M 102.5,87.5 C 102.5,86.8333 102.5,86.1667 102.5,85.5C 104.179,83.8253 106.179,82.992 108.5,83C 107.045,85.2273 105.045,86.7273 102.5,87.5 Z"/></g>
<g><path style="opacity:0.838" fill="#eecac8" d="M 159.5,87.5 C 157.094,86.6499 154.76,87.1499 152.5,89C 148.416,94.4194 146.416,100.586 146.5,107.5C 140.875,105.61 138.209,101.61 138.5,95.5C 142.5,95.1667 142.5,94.8333 138.5,94.5C 138.963,91.5176 139.296,88.5176 139.5,85.5C 140.791,85.7373 141.791,85.404 142.5,84.5C 142.167,84.5 141.833,84.5 141.5,84.5C 142.564,81.1076 144.897,79.1076 148.5,78.5C 154.911,78.2504 158.577,81.2504 159.5,87.5 Z M 142.5,84.5 C 144.308,84.5086 145.975,84.0086 147.5,83C 145.465,82.4014 143.799,82.9014 142.5,84.5 Z M 147.5,85.5 C 145.127,86.3781 144.294,88.0448 145,90.5C 145.93,88.4476 147.43,86.9476 149.5,86C 148.906,85.5357 148.239,85.369 147.5,85.5 Z"/></g>
<g><path style="opacity:1" fill="#546cae" d="M 276.5,82.5 C 277.824,84.558 277.324,86.2247 275,87.5C 274.617,86.944 274.117,86.6107 273.5,86.5C 271.973,86.427 270.973,87.0937 270.5,88.5C 269.761,88.631 269.094,88.4643 268.5,88C 269.305,86.8873 269.972,85.7206 270.5,84.5C 271.609,84.4431 272.609,84.1098 273.5,83.5C 274.609,83.4431 275.609,83.1098 276.5,82.5 Z"/></g>
<g><path style="opacity:0.842" fill="#f8eece" d="M 354.5,87.5 C 350.799,86.9161 347.632,88.2495 345,91.5C 342.985,96.6258 341.818,101.959 341.5,107.5C 335.884,105.632 333.217,101.632 333.5,95.5C 336.167,95.1667 336.167,94.8333 333.5,94.5C 333.858,91.3112 334.525,88.3112 335.5,85.5C 337.842,85.4959 339.842,84.6625 341.5,83C 339.718,82.8782 338.052,83.3782 336.5,84.5C 337.564,81.1076 339.897,79.1076 343.5,78.5C 349.884,78.2196 353.55,81.2196 354.5,87.5 Z M 340.5,86.5 C 339.074,91.2307 339.74,91.564 342.5,87.5C 342.043,86.7025 341.376,86.3691 340.5,86.5 Z"/></g>
<g><path style="opacity:1" fill="#edf6ed" d="M 439.5,81.5 C 440.552,81.3505 441.552,81.5172 442.5,82C 437.604,84.1239 437.604,85.4572 442.5,86C 440.667,87.1667 438.833,88.3333 437,89.5C 435.837,86.0289 436.67,83.3623 439.5,81.5 Z"/></g>
<g><path style="opacity:1" fill="#9fb3d4" d="M 68.5,81.5 C 70.8418,81.7748 70.8418,82.6081 68.5,84C 66.9556,85.1871 65.2889,85.5205 63.5,85C 65.5844,84.3028 67.2511,83.1361 68.5,81.5 Z"/></g>
<g><path style="opacity:0.461" fill="#fafbfc" d="M 278.5,92.5 C 278.216,90.5853 278.549,88.9187 279.5,87.5C 282.14,86.1799 284.807,84.8466 287.5,83.5C 288.696,83.8457 288.696,84.3457 287.5,85C 288.167,85.1667 288.833,85.3333 289.5,85.5C 292.028,84.0585 294.695,83.5585 297.5,84C 293.693,85.8808 289.693,87.0474 285.5,87.5C 284.539,90.8347 282.206,92.5014 278.5,92.5 Z"/></g>
<g><path style="opacity:1" fill="#f5e2ac" d="M 364.5,85.5 C 365.895,83.6997 367.561,83.3664 369.5,84.5C 367.955,85.4519 366.288,85.7852 364.5,85.5 Z"/></g>
<g><path style="opacity:1" fill="#dce3ef" d="M 89.5,84.5 C 90.8734,84.3433 92.2068,84.51 93.5,85C 88.9003,87.215 84.7336,90.0483 81,93.5C 82.0016,88.8696 84.8349,85.8696 89.5,84.5 Z"/></g>
<g><path style="opacity:0.184" fill="#c7d2e5" d="M 94.5,86.5 C 95.5268,85.1522 96.8602,84.6522 98.5,85C 97.4366,86.1882 96.1033,86.6882 94.5,86.5 Z"/></g>
<g><path style="opacity:0.284" fill="#e6b2ae" d="M 135.5,85.5 C 135.027,86.9063 134.027,87.573 132.5,87.5C 132.821,85.9519 133.821,85.2852 135.5,85.5 Z"/></g>
<g><path style="opacity:0.157" fill="#edc2be" d="M 171.5,83.5 C 172.675,83.281 173.675,83.6143 174.5,84.5C 172.209,85.5905 169.876,86.0905 167.5,86C 168.858,85.0656 170.192,84.2323 171.5,83.5 Z"/></g>
<g><path style="opacity:0.987" fill="#c9e4c8" d="M 471.5,81.5 C 476.22,81.2254 476.554,82.0588 472.5,84C 473.623,85.0437 474.956,85.7104 476.5,86C 471.322,89.2595 469.656,87.7595 471.5,81.5 Z"/></g>
<g><path style="opacity:0.961" fill="#708dbf" d="M 59.5,83.5 C 59.2627,84.791 59.596,85.791 60.5,86.5C 59.7063,89.1519 59.0396,88.9852 58.5,86C 58.528,84.9302 58.8614,84.0968 59.5,83.5 Z"/></g>
<g><path style="opacity:0.545" fill="#e7afaa" d="M 124.5,85.5 C 128.339,85.6121 128.339,86.2787 124.5,87.5C 123.537,87.0302 123.537,86.3635 124.5,85.5 Z"/></g>
<g><path style="opacity:1" fill="#9fb3d4" d="M 273.5,86.5 C 273.179,88.0481 272.179,88.7148 270.5,88.5C 270.973,87.0937 271.973,86.427 273.5,86.5 Z"/></g>
<g><path style="opacity:1" fill="#f2d68d" d="M 364.5,85.5 C 363.047,86.8249 363.381,87.6582 365.5,88C 363.788,89.7509 361.788,90.4175 359.5,90C 361.481,89.3946 361.815,88.3946 360.5,87C 361.745,86.2086 363.078,85.7086 364.5,85.5 Z"/></g>
<g><path style="opacity:1" fill="#dfe5f0" d="M 94.5,86.5 C 93.1979,88.8218 91.1979,90.1551 88.5,90.5C 90.1475,88.6736 92.1475,87.3403 94.5,86.5 Z"/></g>
<g><path style="opacity:0.925" fill="#d1685d" d="M 131.5,86.5 C 134.333,89.0587 133.666,90.392 129.5,90.5C 129.158,89.6618 128.492,89.3284 127.5,89.5C 128.035,87.5544 129.368,86.5544 131.5,86.5 Z"/></g>
<g><path style="opacity:0.671" fill="#b9dcb8" d="M 195.5,86.5 C 195.833,86.5 196.167,86.5 196.5,86.5C 196.369,87.2389 196.536,87.9056 197,88.5C 198.049,87.4829 199.216,87.3162 200.5,88C 198.975,89.0086 197.308,89.5086 195.5,89.5C 195.5,88.5 195.5,87.5 195.5,86.5 Z"/></g>
<g><path style="opacity:1" fill="#e4e9f2" d="M 266.5,82.5 C 267.183,84.1765 268.517,84.8432 270.5,84.5C 269.972,85.7206 269.305,86.8873 268.5,88C 269.094,88.4643 269.761,88.631 270.5,88.5C 268.481,89.9334 266.314,91.2668 264,92.5C 264.195,90.255 265.362,88.4216 267.5,87C 266.551,86.3828 265.718,86.5494 265,87.5C 264.123,85.3258 264.623,83.6591 266.5,82.5 Z"/></g>
<g><path style="opacity:0.982" fill="#edc9c7" d="M 432.5,72.5 C 432.5,78.1667 432.5,83.8333 432.5,89.5C 428.579,89.8342 424.579,90.0009 420.5,90C 418.43,90.9476 416.93,92.4476 416,94.5C 414.219,105.787 414.052,117.12 415.5,128.5C 415.333,130.5 415.167,132.5 415,134.5C 414.5,135 414,135.5 413.5,136C 407.82,136.259 402.154,135.926 396.5,135C 393.961,133.195 392.961,130.695 393.5,127.5C 395.167,127.5 396.833,127.5 398.5,127.5C 398.227,129.451 398.893,130.951 400.5,132C 403.817,132.498 407.15,132.665 410.5,132.5C 410.808,130.076 410.474,127.743 409.5,125.5C 409.446,126.53 409.112,127.697 408.5,129C 405.964,129.339 403.464,129.839 401,130.5C 399.317,129.824 399.15,128.824 400.5,127.5C 402.5,127.5 404.5,127.5 406.5,127.5C 406.5,124.5 406.5,121.5 406.5,118.5C 407.161,119.718 407.828,121.051 408.5,122.5C 409.086,122.291 409.586,121.957 410,121.5C 410.831,115.141 410.664,108.807 409.5,102.5C 407.712,103.283 406.712,104.616 406.5,106.5C 405.167,101.833 405.167,97.1667 406.5,92.5C 406.34,94.1992 406.506,95.8659 407,97.5C 409.993,95.367 413.16,92.5337 416.5,89C 419.711,87.8468 423.044,87.1802 426.5,87C 427.576,85.2739 427.743,83.4406 427,81.5C 420.532,84.0654 414.532,87.3988 409,91.5C 408.5,91.3333 408,91.1667 407.5,91C 410.332,89.0924 409.999,88.259 406.5,88.5C 407.989,84.8467 410.656,82.3467 414.5,81C 417.572,81.3642 420.572,81.1975 423.5,80.5C 428.809,78.5638 428.809,77.8971 423.5,78.5C 423.216,76.5853 423.549,74.9187 424.5,73.5C 424.56,74.0431 424.893,74.3764 425.5,74.5C 427.618,73.0541 429.951,72.3874 432.5,72.5 Z"/></g>
<g><path style="opacity:1" fill="#d5dcec" d="M 67.5,90.5 C 64.5691,92.0908 61.9024,94.0908 59.5,96.5C 58.1667,94.5 58.1667,92.5 59.5,90.5C 62.8517,89.1525 66.0184,87.4859 69,85.5C 69.6128,87.4952 69.1128,89.1619 67.5,90.5 Z"/></g>
<g><path style="opacity:1" fill="#d3dbeb" d="M 67.5,90.5 C 70.2668,89.9493 72.6001,88.6159 74.5,86.5C 76.4259,87.0606 78.4259,87.2273 80.5,87C 78.2688,88.147 75.9355,89.147 73.5,90C 69.8149,93.9959 65.4815,96.6626 60.5,98C 63.7392,96.2636 66.0726,93.7636 67.5,90.5 Z"/></g>
<g><path style="opacity:0.306" fill="#e9bbb8" d="M 166.5,88.5 C 168.379,88.3932 168.712,88.8932 167.5,90C 164.125,90.6316 163.791,90.1316 166.5,88.5 Z"/></g>
<g><path style="opacity:0.277" fill="#d0e7cf" d="M 205.5,87.5 C 205.5,88.1667 205.5,88.8333 205.5,89.5C 201.674,90.4796 201.674,91.3129 205.5,92C 203.359,92.5725 201.359,93.4058 199.5,94.5C 199.5,93.8333 199.5,93.1667 199.5,92.5C 201.233,91.9924 201.566,91.159 200.5,90C 202.193,89.1534 203.86,88.3201 205.5,87.5 Z"/></g>
<g><path style="opacity:1" fill="#9ccd9a" d="M 243.5,86.5 C 244.675,86.281 245.675,86.6143 246.5,87.5C 243.157,88.6773 239.824,89.5107 236.5,90C 238.858,88.7245 241.192,87.5578 243.5,86.5 Z"/></g>
<g><path style="opacity:1" fill="#fbf5e4" d="M 368.5,87.5 C 369.773,88.0768 369.773,88.7435 368.5,89.5C 367.549,90.3256 366.549,90.4922 365.5,90C 366.571,89.1482 367.571,88.3149 368.5,87.5 Z"/></g>
<g><path style="opacity:1" fill="#82c07f" d="M 440.5,91.5 C 440.5,91.1667 440.5,90.8333 440.5,90.5C 441.641,89.661 442.974,88.9943 444.5,88.5C 444.833,89.1667 445.167,89.8333 445.5,90.5C 446.768,89.5721 448.101,89.4054 449.5,90C 446.505,91.2853 443.505,91.7853 440.5,91.5 Z"/></g>
<g><path style="opacity:1" fill="#c6e2c5" d="M 475.5,88.5 C 481.599,88.7385 481.266,89.7385 474.5,91.5C 473.833,91.3333 473.167,91.1667 472.5,91C 473.571,90.1482 474.571,89.3149 475.5,88.5 Z"/></g>
<g><path style="opacity:0.69" fill="#e3a5a0" d="M 172.5,88.5 C 171.948,90.6086 170.614,91.4419 168.5,91C 169.693,89.9054 171.027,89.072 172.5,88.5 Z"/></g>
<g><path style="opacity:1" fill="#f8e6e5" d="M 390.5,89.5 C 395.422,89.1104 395.756,90.2771 391.5,93C 393.833,93.3333 396.167,93.6667 398.5,94C 396,95.8333 393.5,97.6667 391,99.5C 390.502,96.1832 390.335,92.8499 390.5,89.5 Z"/></g>
<g><path style="opacity:1" fill="#e9bcb9" d="M 400.5,89.5 C 401.376,89.3691 402.043,89.7025 402.5,90.5C 401.277,91.6139 399.944,91.7805 398.5,91C 399.416,90.7216 400.082,90.2216 400.5,89.5 Z"/></g>
<g><path style="opacity:1" fill="#c9e4c9" d="M 246.5,89.5 C 247.434,90.5676 247.768,91.901 247.5,93.5C 244.531,94.3287 241.531,94.4954 238.5,94C 241.191,92.3952 243.858,90.8952 246.5,89.5 Z"/></g>
<g><path style="opacity:1" fill="#ecf5eb" d="M 440.5,90.5 C 440.5,90.8333 440.5,91.1667 440.5,91.5C 439.522,91.811 438.855,92.4777 438.5,93.5C 440.781,94.1847 443.114,94.3513 445.5,94C 442.567,95.2709 439.901,96.9376 437.5,99C 441.386,99.5785 441.386,100.412 437.5,101.5C 436.511,97.8927 436.177,94.226 436.5,90.5C 437.833,90.5 439.167,90.5 440.5,90.5 Z"/></g>
<g><path style="opacity:1" fill="#c3cfe4" d="M 100.5,86.5 C 100.5,87.1667 100.833,87.5 101.5,87.5C 101.918,88.2216 102.584,88.7216 103.5,89C 100.924,89.7822 98.9242,91.2822 97.5,93.5C 92.6111,94.2466 87.7778,95.2466 83,96.5C 81.7425,96.1501 81.4092,95.4835 82,94.5C 84.0693,92.9146 86.236,91.5813 88.5,90.5C 88.5,91.5 88.5,92.5 88.5,93.5C 92.5944,93.2327 95.4277,91.2327 97,87.5C 97.7253,89.158 98.892,89.658 100.5,89C 98.1582,87.6081 98.1582,86.7748 100.5,86.5 Z"/></g>
<g><path style="opacity:1" fill="#c2cee3" d="M 77.5,90.5 C 78.0965,91.9354 78.0965,93.602 77.5,95.5C 75.0846,95.6265 72.7513,95.7932 70.5,96C 73.02,94.3029 75.3533,92.4695 77.5,90.5 Z"/></g>
<g><path style="opacity:0.325" fill="#dd9590" d="M 166.5,94.5 C 167.251,93.4265 168.251,93.2599 169.5,94C 168.956,94.7172 168.289,95.2172 167.5,95.5C 167.5,94.8333 167.167,94.5 166.5,94.5 Z"/></g>
<g><path style="opacity:0.098" fill="#ecc4c2" d="M 125.5,95.5 C 126.946,94.3871 128.613,94.2204 130.5,95C 129.473,95.5133 128.473,96.0133 127.5,96.5C 127.158,95.6618 126.492,95.3284 125.5,95.5 Z"/></g>
<g><path style="opacity:0.345" fill="#df9c97" d="M 174.5,91.5 C 176.842,91.7748 176.842,92.6081 174.5,94C 172.945,95.2893 171.279,95.956 169.5,96C 171.24,94.483 172.906,92.983 174.5,91.5 Z"/></g>
<g><path style="opacity:0.075" fill="#d3e9d2" d="M 206.5,92.5 C 208.705,92.8459 208.872,93.5126 207,94.5C 205.535,95.3295 204.035,95.4962 202.5,95C 204.066,94.3918 205.4,93.5585 206.5,92.5 Z"/></g>
<g><path style="opacity:0.078" fill="#f7ebc6" d="M 320.5,95.5 C 321.946,94.3871 323.613,94.2204 325.5,95C 324.473,95.5133 323.473,96.0133 322.5,96.5C 322.158,95.6618 321.492,95.3284 320.5,95.5 Z"/></g>
<g><path style="opacity:1" fill="#fbf2db" d="M 359.5,99.5 C 359.167,99.5 358.833,99.5 358.5,99.5C 358.494,95.3348 360.494,93.5015 364.5,94C 361.921,95.0757 360.254,96.909 359.5,99.5 Z"/></g>
<g><path style="opacity:1" fill="#ccd6e8" d="M 270.5,94.5 C 269.151,93.2035 267.818,93.3702 266.5,95C 267.449,95.6172 268.282,95.4506 269,94.5C 269.513,95.5266 270.013,96.5266 270.5,97.5C 267.914,96.744 265.581,96.744 263.5,97.5C 265.868,92.3283 269.868,89.8283 275.5,90C 273.963,91.7073 272.296,93.2073 270.5,94.5 Z"/></g>
<g><path style="opacity:1" fill="#e9f4e8" d="M 241.5,95.5 C 242.552,95.3505 243.552,95.5172 244.5,96C 242.664,97.419 240.664,98.5857 238.5,99.5C 237.614,98.675 237.281,97.675 237.5,96.5C 239.099,96.7678 240.432,96.4345 241.5,95.5 Z"/></g>
<g><path style="opacity:1" fill="#8196c5" d="M 270.5,94.5 C 271.953,94.9293 273.619,95.096 275.5,95C 273.97,96.1203 272.303,96.9536 270.5,97.5C 270.013,96.5266 269.513,95.5266 269,94.5C 268.282,95.4506 267.449,95.6172 266.5,95C 267.818,93.3702 269.151,93.2035 270.5,94.5 Z"/></g>
<g><path style="opacity:0.004" fill="#f5e1df" d="M 122.5,96.5 C 122.5,97.1667 122.833,97.5 123.5,97.5C 123.44,98.0431 123.107,98.3764 122.5,98.5C 121.227,97.7435 121.227,97.0768 122.5,96.5 Z"/></g>
<g><path style="opacity:0.298" fill="#e3a6a1" d="M 129.5,100.5 C 128.391,99.71 127.058,99.21 125.5,99C 128.512,98.2196 131.345,97.0529 134,95.5C 134.667,96.1667 134.667,96.8333 134,97.5C 131.491,98.1069 129.991,99.1069 129.5,100.5 Z"/></g>
<g><path style="opacity:0.302" fill="#eec5c1" d="M 165.5,96.5 C 164.89,97.391 164.557,98.391 164.5,99.5C 164.167,99.5 163.833,99.5 163.5,99.5C 163.285,97.8212 163.952,96.8212 165.5,96.5 Z"/></g>
<g><path style="opacity:0.463" fill="#e7b5b2" d="M 176.5,95.5 C 177.688,97.4959 177.021,98.3293 174.5,98C 175.381,97.2917 176.047,96.4584 176.5,95.5 Z"/></g>
<g><path style="opacity:1" fill="#c9e4c8" d="M 243.5,99.5 C 244.848,98.3994 246.348,97.3994 248,96.5C 248.483,97.448 248.649,98.448 248.5,99.5C 246.833,99.5 245.167,99.5 243.5,99.5 Z"/></g>
<g><path style="opacity:1" fill="#f6e8bf" d="M 370.5,96.5 C 372.975,96.7467 372.975,97.4134 370.5,98.5C 369.537,98.0302 369.537,97.3635 370.5,96.5 Z"/></g>
<g><path style="opacity:0.993" fill="#cfd9e9" d="M 111.5,57.5 C 114.414,58.9061 116.914,60.9061 119,63.5C 121.457,68.6946 122.957,74.0279 123.5,79.5C 120.319,84.7087 118.319,90.3754 117.5,96.5C 115.825,98.1928 114.492,100.193 113.5,102.5C 103.739,105.442 93.7387,106.942 83.5,107C 81.8433,114.036 80.6766,121.203 80,128.5C 79.4806,129.516 78.6473,130.182 77.5,130.5C 73.5605,130.172 69.5605,130.005 65.5,130C 63.2124,128.05 61.8791,125.55 61.5,122.5C 64.1357,121.176 66.8023,121.176 69.5,122.5C 70.7989,121.91 71.6322,120.91 72,119.5C 72.7714,112.515 73.2714,105.515 73.5,98.5C 81.9163,98.7169 90.2496,98.0502 98.5,96.5C 99.8493,97.6441 100.183,97.6441 99.5,96.5C 100.965,95.2632 102.632,94.2632 104.5,93.5C 105.071,94.9733 105.071,96.64 104.5,98.5C 103.833,98.8333 103.167,99.1667 102.5,99.5C 100.703,100.73 98.7028,101.396 96.5,101.5C 96.5,100.5 96.5,99.5 96.5,98.5C 94.236,99.5813 92.0693,100.915 90,102.5C 89.4092,103.483 89.7425,104.15 91,104.5C 95.3975,103.138 99.8975,102.304 104.5,102C 105.878,100.287 107.545,98.9533 109.5,98C 108.167,97.6667 106.833,97.3333 105.5,97C 105.833,96.6667 106.167,96.3333 106.5,96C 109.932,95.8839 112.932,94.7172 115.5,92.5C 112.693,91.8627 110.027,92.5294 107.5,94.5C 107.213,93.7997 106.88,93.1331 106.5,92.5C 109.555,86.9955 112.221,81.3289 114.5,75.5C 114.5,73.8333 114.5,72.1667 114.5,70.5C 115.5,70.5 116.5,70.5 117.5,70.5C 117.737,69.209 117.404,68.209 116.5,67.5C 116.34,65.847 115.674,64.5137 114.5,63.5C 114.167,62.1667 113.833,62.1667 113.5,63.5C 112.542,61.6976 111.875,59.6976 111.5,57.5 Z M 117.5,79.5 C 119.852,80.5426 120.019,81.8759 118,83.5C 117.25,82.8742 116.416,82.3742 115.5,82C 116.381,81.2917 117.047,80.4584 117.5,79.5 Z M 114.5,75.5 C 116.103,74.3228 117.436,74.4894 118.5,76C 116.694,78.1368 115.36,77.9701 114.5,75.5 Z M 104.5,98.5 C 105.738,98.81 105.738,99.31 104.5,100C 103.563,100.692 102.897,100.525 102.5,99.5C 103.167,99.1667 103.833,98.8333 104.5,98.5 Z"/></g>
<g><path style="opacity:0.349" fill="#c4e1c4" d="M 200.5,100.5 C 200.5,99.8333 200.5,99.1667 200.5,98.5C 202.494,97.6503 204.494,97.1503 206.5,97C 204.636,98.4307 202.636,99.5974 200.5,100.5 Z"/></g>
<g><path style="opacity:0.412" fill="#f6e8bd" d="M 326.5,96.5 C 328.379,96.3932 328.712,96.8932 327.5,98C 325.246,99.1505 322.913,99.4838 320.5,99C 322.723,98.4338 324.723,97.6005 326.5,96.5 Z"/></g>
<g><path style="opacity:0.837" fill="#dbedda" d="M 474.5,94.5 C 475.434,95.5676 475.768,96.901 475.5,98.5C 477.857,98.3367 480.19,98.5034 482.5,99C 480.156,99.8372 478.156,101.171 476.5,103C 477.328,103.915 478.328,104.581 479.5,105C 478.034,105.635 476.7,106.469 475.5,107.5C 474.508,103.217 474.174,98.8839 474.5,94.5 Z"/></g>
<g><path style="opacity:0.543" fill="#f7f8fb" d="M 96.5,98.5 C 96.5,99.5 96.5,100.5 96.5,101.5C 98.7028,101.396 100.703,100.73 102.5,99.5C 102.897,100.525 103.563,100.692 104.5,100C 105.738,99.31 105.738,98.81 104.5,98.5C 105.071,96.64 105.071,94.9733 104.5,93.5C 105.167,93.1667 105.833,92.8333 106.5,92.5C 106.88,93.1331 107.213,93.7997 107.5,94.5C 110.027,92.5294 112.693,91.8627 115.5,92.5C 112.932,94.7172 109.932,95.8839 106.5,96C 106.167,96.3333 105.833,96.6667 105.5,97C 106.833,97.3333 108.167,97.6667 109.5,98C 107.545,98.9533 105.878,100.287 104.5,102C 99.8975,102.304 95.3975,103.138 91,104.5C 89.7425,104.15 89.4092,103.483 90,102.5C 92.0693,100.915 94.236,99.5813 96.5,98.5 Z M 104.5,98.5 C 105.738,98.81 105.738,99.31 104.5,100C 103.563,100.692 102.897,100.525 102.5,99.5C 103.167,99.1667 103.833,98.8333 104.5,98.5 Z"/></g>
<g><path style="opacity:0.196" fill="#d5ead4" d="M 205.5,100.5 C 206.251,99.4265 207.251,99.2599 208.5,100C 207.956,100.717 207.289,101.217 206.5,101.5C 206.5,100.833 206.167,100.5 205.5,100.5 Z"/></g>
<g><path style="opacity:1" fill="#e2e8f2" d="M 269.5,98.5 C 270.873,98.3433 272.207,98.51 273.5,99C 270.5,100.5 267.5,102 264.5,103.5C 263.167,102.5 263.167,101.5 264.5,100.5C 266.336,99.9724 268.003,99.3058 269.5,98.5 Z"/></g>
<g><path style="opacity:0.475" fill="#e1a19d" d="M 129.5,100.5 C 128.833,101.167 128.167,101.833 127.5,102.5C 126.833,102.5 126.167,102.5 125.5,102.5C 126.183,100.824 127.517,100.157 129.5,100.5 Z"/></g>
<g><path style="opacity:1" fill="#f9eeed" d="M 390.5,100.5 C 394.833,101.174 395.167,102.174 391.5,103.5C 390.614,102.675 390.281,101.675 390.5,100.5 Z"/></g>
<g><path style="opacity:1" fill="#eec8c6" d="M 400.5,94.5 C 401.818,97.2575 402.485,100.424 402.5,104C 402.333,107.167 402.167,110.333 402,113.5C 400.951,114.517 399.784,114.684 398.5,114C 402.127,111.888 402.127,110.221 398.5,109C 399.687,107.981 400.687,106.814 401.5,105.5C 399.234,104.686 396.9,104.186 394.5,104C 397.707,103.428 399.374,101.595 399.5,98.5C 398.448,98.6495 397.448,98.4828 396.5,98C 398.093,97.0513 399.426,95.8846 400.5,94.5 Z"/></g>
<g><path style="opacity:1" fill="#bfcbe2" d="M 62.5,100.5 C 63.2389,100.369 63.9056,100.536 64.5,101C 62.8599,103.339 60.8599,104.172 58.5,103.5C 60.1836,102.85 61.5169,101.85 62.5,100.5 Z"/></g>
<g><path style="opacity:0.063" fill="#eeccca" d="M 123.5,101.5 C 123.5,102.167 123.833,102.5 124.5,102.5C 124.44,103.043 124.107,103.376 123.5,103.5C 122.227,102.743 122.227,102.077 123.5,101.5 Z"/></g>
<g><path style="opacity:0.255" fill="#bedfbe" d="M 195.5,100.5 C 195.328,101.492 195.662,102.158 196.5,102.5C 195.698,103.885 195.031,103.718 194.5,102C 194.57,101.235 194.903,100.735 195.5,100.5 Z"/></g>
<g><path style="opacity:1" fill="#daecd9" d="M 243.5,99.5 C 243.082,100.222 242.416,100.722 241.5,101C 242.5,101.333 243.5,101.667 244.5,102C 242.285,103.814 239.952,104.314 237.5,103.5C 238.376,102.749 239.376,102.249 240.5,102C 239.833,101.667 239.167,101.333 238.5,101C 240.025,99.9914 241.692,99.4914 243.5,99.5 Z"/></g>
<g><path style="opacity:0.878" fill="#de9792" d="M 127.5,102.5 C 130.221,101.859 132.888,101.359 135.5,101C 134.377,102.044 133.044,102.71 131.5,103C 132.167,103.333 132.833,103.667 133.5,104C 130.685,105.721 127.685,106.388 124.5,106C 126.392,105.027 128.392,104.36 130.5,104C 129.263,103.768 128.263,103.268 127.5,102.5 Z"/></g>
<g><path style="opacity:1" fill="#c2cee3" d="M 276.5,102.5 C 272.537,103.171 268.87,104.338 265.5,106C 268.274,103.529 271.44,101.695 275,100.5C 276.03,100.836 276.53,101.503 276.5,102.5 Z"/></g>
<g><path style="opacity:0.988" fill="#f2dc9c" d="M 328.5,100.5 C 329.043,100.56 329.376,100.893 329.5,101.5C 328.624,102.251 327.624,102.751 326.5,103C 327.167,103.333 327.833,103.667 328.5,104C 325.685,105.721 322.685,106.388 319.5,106C 321.392,105.027 323.392,104.36 325.5,104C 324.5,103.667 323.5,103.333 322.5,103C 324.723,102.434 326.723,101.6 328.5,100.5 Z"/></g>
<g><path style="opacity:1" fill="#7ebd79" d="M 447.5,103.5 C 447.082,104.222 446.416,104.722 445.5,105C 446.094,105.464 446.761,105.631 447.5,105.5C 447.083,106.124 446.416,106.457 445.5,106.5C 444.524,105.805 443.524,105.138 442.5,104.5C 442.5,104.167 442.5,103.833 442.5,103.5C 443.263,102.732 444.263,102.232 445.5,102C 444.167,101.667 442.833,101.333 441.5,101C 443.871,100.265 446.205,99.4318 448.5,98.5C 448.833,98.8333 449.167,99.1667 449.5,99.5C 446.942,100.218 446.275,101.551 447.5,103.5 Z"/></g>
<g><path style="opacity:1" fill="#dbedda" d="M 447.5,105.5 C 446.761,105.631 446.094,105.464 445.5,105C 446.416,104.722 447.082,104.222 447.5,103.5C 448.575,102.438 449.575,102.438 450.5,103.5C 449.995,104.919 448.995,105.585 447.5,105.5 Z"/></g>
<g><path style="opacity:0.149" fill="#cde5cc" d="M 196.5,105.5 C 198.288,104.378 200.288,104.211 202.5,105C 201.473,105.513 200.473,106.013 199.5,106.5C 198.791,105.596 197.791,105.263 196.5,105.5 Z"/></g>
<g><path style="opacity:0.812" fill="#f4dc9c" d="M 355.5,101.5 C 356.806,104.247 355.806,105.913 352.5,106.5C 353.11,104.566 354.11,102.899 355.5,101.5 Z"/></g>
<g><path style="opacity:0.861" fill="#f6e4b1" d="M 362.5,108.5 C 362.577,107.25 363.244,106.417 364.5,106C 363.833,105.667 363.167,105.333 362.5,105C 365.912,103.545 369.079,101.712 372,99.5C 372.617,100.449 372.451,101.282 371.5,102C 369.5,103 367.5,104 365.5,105C 366.167,105.333 366.833,105.667 367.5,106C 365.807,106.847 364.14,107.68 362.5,108.5 Z"/></g>
<g><path style="opacity:1" fill="#f8eaea" d="M 406.5,118.5 C 406.5,114.5 406.5,110.5 406.5,106.5C 406.712,104.616 407.712,103.283 409.5,102.5C 410.664,108.807 410.831,115.141 410,121.5C 409.586,121.957 409.086,122.291 408.5,122.5C 407.828,121.051 407.161,119.718 406.5,118.5 Z"/></g>
<g><path style="opacity:1" fill="#b8c7df" d="M 68.5,104.5 C 70.337,104.639 70.6704,105.306 69.5,106.5C 67.9222,107.64 66.2555,108.14 64.5,108C 66.0931,107.051 67.4264,105.885 68.5,104.5 Z"/></g>
<g><path style="opacity:0.855" fill="#e5aaa5" d="M 168.5,108.5 C 168.5,107.833 168.167,107.5 167.5,107.5C 167.918,106.778 168.584,106.278 169.5,106C 168.833,105.667 168.167,105.333 167.5,105C 170.912,103.545 174.079,101.712 177,99.5C 177.667,100.167 177.667,100.833 177,101.5C 174.913,102.794 172.746,103.961 170.5,105C 171.167,105.333 171.833,105.667 172.5,106C 171.016,106.662 169.683,107.496 168.5,108.5 Z"/></g>
<g><path style="opacity:0.11" fill="#d1e8d0" d="M 212.5,109.5 C 211.5,109.5 210.5,109.5 209.5,109.5C 210.66,107.797 209.993,107.131 207.5,107.5C 206.432,106.566 205.099,106.232 203.5,106.5C 205.291,105.609 207.124,104.609 209,103.5C 210.431,105.364 211.597,107.364 212.5,109.5 Z"/></g>
<g><path style="opacity:1" fill="#b3d9b1" d="M 246.5,103.5 C 248.379,103.393 248.712,103.893 247.5,105C 245.553,105.991 243.553,106.325 241.5,106C 243.315,105.243 244.981,104.41 246.5,103.5 Z"/></g>
<g><path style="opacity:1" fill="#bfcbe2" d="M 62.5,105.5 C 63.2389,105.369 63.9056,105.536 64.5,106C 62.8333,107.167 61.1667,108.333 59.5,109.5C 58.479,108.998 58.3123,108.332 59,107.5C 60.3024,106.915 61.469,106.249 62.5,105.5 Z"/></g>
<g><path style="opacity:0.737" fill="#dd948e" d="M 133.5,105.5 C 134.873,105.343 136.207,105.51 137.5,106C 134.923,107.25 132.257,107.584 129.5,107C 131.058,106.79 132.391,106.29 133.5,105.5 Z"/></g>
<g><path style="opacity:0.141" fill="#ecc5c3" d="M 175.5,108.5 C 175.158,107.662 174.492,107.328 173.5,107.5C 174.527,106.152 175.86,105.652 177.5,106C 176.934,106.995 176.267,107.828 175.5,108.5 Z"/></g>
<g><path style="opacity:1" fill="#788fc1" d="M 274.5,104.5 C 274.953,105.458 275.619,106.292 276.5,107C 274.414,107.315 272.414,107.815 270.5,108.5C 270.5,107.5 270.5,106.5 270.5,105.5C 271.959,105.567 273.292,105.234 274.5,104.5 Z"/></g>
<g><path style="opacity:1" fill="#d2daea" d="M 276.5,102.5 C 280.01,105.94 280.01,109.274 276.5,112.5C 274.621,112.607 274.288,112.107 275.5,111C 274.975,110.308 274.308,109.808 273.5,109.5C 271.669,110.929 269.669,111.429 267.5,111C 266.167,110.333 266.167,109.667 267.5,109C 268.448,108.517 269.448,108.351 270.5,108.5C 272.414,107.815 274.414,107.315 276.5,107C 275.619,106.292 274.953,105.458 274.5,104.5C 275.5,104.167 276.167,103.5 276.5,102.5 Z"/></g>
<g><path style="opacity:0.792" fill="#f1db96" d="M 328.5,105.5 C 329.873,105.343 331.207,105.51 332.5,106C 329.923,107.25 327.257,107.584 324.5,107C 326.058,106.79 327.391,106.29 328.5,105.5 Z"/></g>
<g><path style="opacity:1" fill="#f7e4e3" d="M 391.5,106.5 C 397.641,106.101 397.975,107.101 392.5,109.5C 390.481,108.867 390.147,107.867 391.5,106.5 Z"/></g>
<g><path style="opacity:0.286" fill="#c5e2c4" d="M 203.5,106.5 C 203.5,107.167 203.833,107.5 204.5,107.5C 202.972,108.309 201.306,108.976 199.5,109.5C 200.035,107.554 201.368,106.554 203.5,106.5 Z"/></g>
<g><path style="opacity:0.258" fill="#ecc4c2" d="M 130.5,108.5 C 131.873,108.343 133.207,108.51 134.5,109C 132.541,109.931 130.541,110.764 128.5,111.5C 127.692,111.192 127.025,110.692 126.5,110C 128.058,109.79 129.391,109.29 130.5,108.5 Z"/></g>
<g><path style="opacity:0.498" fill="#e5aeab" d="M 175.5,108.5 C 175.027,109.906 174.027,110.573 172.5,110.5C 172.973,109.094 173.973,108.427 175.5,108.5 Z"/></g>
<g><path style="opacity:0.262" fill="#cbe5ca" d="M 247.5,112.5 C 245.786,113.738 243.786,114.405 241.5,114.5C 241.833,113.167 242.167,111.833 242.5,110.5C 242.5,110.167 242.5,109.833 242.5,109.5C 244.5,109.167 246.5,108.833 248.5,108.5C 248.768,110.099 248.434,111.432 247.5,112.5 Z M 247.5,112.5 C 247.631,111.761 247.464,111.094 247,110.5C 244.832,111.822 244.999,112.489 247.5,112.5 Z"/></g>
<g><path style="opacity:0.161" fill="#f8eed0" d="M 326.5,108.5 C 327.552,108.351 328.552,108.517 329.5,109C 327.541,109.931 325.541,110.764 323.5,111.5C 322.692,111.192 322.025,110.692 321.5,110C 323.382,109.802 325.048,109.302 326.5,108.5 Z"/></g>
<g><path style="opacity:1" fill="#e1f0e0" d="M 442.5,103.5 C 442.5,103.833 442.5,104.167 442.5,104.5C 440.277,105.114 438.611,106.448 437.5,108.5C 438.333,108.833 439.167,109.167 440,109.5C 442.468,108.497 444.968,107.997 447.5,108C 444.833,109.333 442.167,110.667 439.5,112C 438.167,113 438.167,114 439.5,115C 438.584,115.374 437.75,115.874 437,116.5C 436.173,112.459 436.34,108.459 437.5,104.5C 439.071,103.691 440.738,103.357 442.5,103.5 Z"/></g>
<g><path style="opacity:0.998" fill="#f4f9f4" d="M 475.5,109.5 C 477.199,109.34 478.866,109.506 480.5,110C 475.514,112.201 475.514,113.868 480.5,115C 478.91,116.046 477.41,117.213 476,118.5C 475.502,115.518 475.335,112.518 475.5,109.5 Z"/></g>
<g><path style="opacity:1" fill="#dce3ef" d="M 64.5,112.5 C 62.9557,112.703 61.6223,113.37 60.5,114.5C 60.1667,114 59.8333,113.5 59.5,113C 61.3698,110.824 63.7031,109.824 66.5,110C 65.6195,110.708 64.9528,111.542 64.5,112.5 Z"/></g>
<g><path style="opacity:0.278" fill="#e7b3b0" d="M 171.5,108.5 C 171.328,109.492 171.662,110.158 172.5,110.5C 165.184,113.342 164.85,112.675 171.5,108.5 Z"/></g>
<g><path style="opacity:0.29" fill="#c7e3c6" d="M 198.5,108.5 C 199.589,110.117 201.256,110.95 203.5,111C 202.09,112.372 200.423,113.205 198.5,113.5C 198.611,112.883 198.944,112.383 199.5,112C 198.244,111.583 197.577,110.75 197.5,109.5C 197.5,108.833 197.833,108.5 198.5,108.5 Z"/></g>
<g><path style="opacity:1" fill="#7dbc77" d="M 242.5,109.5 C 242.5,109.833 242.5,110.167 242.5,110.5C 240.539,112.312 238.206,113.312 235.5,113.5C 235.33,112.178 235.663,111.011 236.5,110C 238.615,109.443 240.615,108.609 242.5,107.5C 243.463,107.97 243.463,108.637 242.5,109.5 Z"/></g>
<g><path style="opacity:0.408" fill="#f6e8bd" d="M 366.5,108.5 C 366.5,109.167 366.5,109.833 366.5,110.5C 364.948,111.622 363.282,112.122 361.5,112C 363.196,110.824 364.862,109.657 366.5,108.5 Z"/></g>
<g><path style="opacity:0.137" fill="#d4e9d3" d="M 209.5,109.5 C 210.209,110.404 211.209,110.737 212.5,110.5C 212.19,112.144 211.19,113.144 209.5,113.5C 208.5,112.167 207.5,112.167 206.5,113.5C 205.5,113.5 204.5,113.5 203.5,113.5C 205.205,111.808 207.205,110.475 209.5,109.5 Z"/></g>
<g><path style="opacity:1" fill="#b6c5de" d="M 64.5,112.5 C 66.0443,112.297 67.3777,111.63 68.5,110.5C 69.3857,111.325 69.719,112.325 69.5,113.5C 67.4884,114.014 65.4884,114.18 63.5,114C 64.056,113.617 64.3893,113.117 64.5,112.5 Z"/></g>
<g><path style="opacity:0.404" fill="#c6d1e6" d="M 302.5,112.5 C 301.833,112.5 301.5,112.833 301.5,113.5C 300.041,113.433 298.708,113.766 297.5,114.5C 297.5,113.833 297.167,113.5 296.5,113.5C 298.402,111.849 300.402,111.516 302.5,112.5 Z"/></g>
<g><path style="opacity:0.008" fill="#faf0d6" d="M 327.5,113.5 C 328.946,112.387 330.613,112.22 332.5,113C 331.473,113.513 330.473,114.013 329.5,114.5C 329.158,113.662 328.492,113.328 327.5,113.5 Z"/></g>
<g><path style="opacity:0.296" fill="#eabbb8" d="M 134.5,114.5 C 133.833,113.167 133.167,113.167 132.5,114.5C 131.761,114.631 131.094,114.464 130.5,114C 132.614,112.482 134.947,112.149 137.5,113C 136.473,113.513 135.473,114.013 134.5,114.5 Z"/></g>
<g><path style="opacity:0.075" fill="#f4dedd" d="M 151.5,112.5 C 151.5,113.167 151.833,113.5 152.5,113.5C 151.614,114.776 150.614,114.776 149.5,113.5C 149.957,112.702 150.624,112.369 151.5,112.5 Z"/></g>
<g><path style="opacity:1" fill="#707eb9" d="M 301.5,113.5 C 303.424,113.711 303.757,114.377 302.5,115.5C 302.565,115.062 302.399,114.728 302,114.5C 301.25,115.126 300.416,115.626 299.5,116C 298.262,116.69 298.262,117.19 299.5,117.5C 298.739,118.391 297.739,119.058 296.5,119.5C 295.537,119.03 295.537,118.363 296.5,117.5C 296.833,116.833 297.167,116.167 297.5,115.5C 297.5,115.167 297.5,114.833 297.5,114.5C 298.708,113.766 300.041,113.433 301.5,113.5 Z"/></g>
<g><path style="opacity:0.323" fill="#c4e1c3" d="M 203.5,113.5 C 203.5,114.167 203.833,114.5 204.5,114.5C 205.263,115.268 206.263,115.768 207.5,116C 204.757,118.038 201.757,119.538 198.5,120.5C 198.672,119.508 198.338,118.842 197.5,118.5C 198.263,117.732 199.263,117.232 200.5,117C 199.5,116.667 198.5,116.333 197.5,116C 199.407,114.878 201.407,114.045 203.5,113.5 Z"/></g>
<g><path style="opacity:0.296" fill="#f6e9c0" d="M 367.5,112.5 C 368.239,112.369 368.906,112.536 369.5,113C 363.903,118.42 357.236,121.086 349.5,121C 355.47,117.846 361.47,115.012 367.5,112.5 Z"/></g>
<g><path style="opacity:1" fill="#c6e2c6" d="M 448.5,112.5 C 450.648,112.389 450.981,113.056 449.5,114.5C 446.979,115.966 444.312,116.466 441.5,116C 444.069,115.102 446.402,113.935 448.5,112.5 Z"/></g>
<g><path style="opacity:0.245" fill="#e4aaa6" d="M 134.5,116.5 C 136.628,115.371 138.961,115.204 141.5,116C 139.26,117.807 136.927,117.974 134.5,116.5 Z"/></g>
<g><path style="opacity:0.075" fill="#efcbc9" d="M 154.5,114.5 C 155.167,114.833 155.833,115.167 156.5,115.5C 155.749,116.573 154.749,116.74 153.5,116C 154.056,115.617 154.389,115.117 154.5,114.5 Z"/></g>
<g><path style="opacity:0.296" fill="#eabfbd" d="M 172.5,112.5 C 173.239,112.369 173.906,112.536 174.5,113C 168.903,118.42 162.236,121.086 154.5,121C 160.47,117.846 166.47,115.012 172.5,112.5 Z"/></g>
<g><path style="opacity:0.242" fill="#cde6cc" d="M 213.5,114.5 C 214.5,115.833 215.5,115.833 216.5,114.5C 217.167,114.833 217.833,115.167 218.5,115.5C 218.167,116.167 217.833,116.833 217.5,117.5C 215.199,119.813 212.532,121.313 209.5,122C 210.167,121.333 210.833,120.667 211.5,120C 208.833,120 206.167,120 203.5,120C 206.723,117.938 210.057,116.104 213.5,114.5 Z"/></g>
<g><path style="opacity:0.964" fill="#ccd7e8" d="M 270.5,118.5 C 272.595,119.412 274.595,120.579 276.5,122C 278.74,122.977 281.073,123.477 283.5,123.5C 282.438,124.575 282.438,125.575 283.5,126.5C 288.562,129.118 293.895,129.951 299.5,129C 300.71,127.961 301.71,126.794 302.5,125.5C 304.229,124.764 305.229,123.43 305.5,121.5C 306.833,121.167 306.833,120.833 305.5,120.5C 306.6,119.395 307.267,118.062 307.5,116.5C 309.677,113.939 311.844,113.939 314,116.5C 315.277,120.097 315.61,123.764 315,127.5C 313.2,129.317 311.034,130.484 308.5,131C 292.846,135.429 280.179,131.263 270.5,118.5 Z M 305.5,121.5 C 305.229,123.43 304.229,124.764 302.5,125.5C 301.394,124.851 300.394,124.517 299.5,124.5C 300.243,123.818 300.909,123.151 301.5,122.5C 302.833,122.167 304.167,121.833 305.5,121.5 Z"/></g>
<g><path style="opacity:0.286" fill="#f4e2ab" d="M 335.5,114.5 C 336.552,114.351 337.552,114.517 338.5,115C 335.652,117.521 332.652,117.854 329.5,116C 331.708,115.809 333.708,115.309 335.5,114.5 Z"/></g>
<g><path style="opacity:0.094" fill="#f8edcd" d="M 349.5,114.5 C 350.167,114.833 350.833,115.167 351.5,115.5C 350.749,116.573 349.749,116.74 348.5,116C 349.056,115.617 349.389,115.117 349.5,114.5 Z"/></g>
<g><path style="opacity:1" fill="#cce5cc" d="M 482.5,115.5 C 483.5,115.5 484.5,115.5 485.5,115.5C 485.5,116.5 485.5,117.5 485.5,118.5C 483.143,118.663 480.81,118.497 478.5,118C 480.066,117.392 481.4,116.558 482.5,115.5 Z"/></g>
<g><path style="opacity:1" fill="#becbe2" d="M 66.5,115.5 C 67.5,115.5 68.5,115.5 69.5,115.5C 69.5,116.5 69.5,117.5 69.5,118.5C 66.7276,118.22 64.2276,118.887 62,120.5C 61.0754,119.953 60.2421,119.287 59.5,118.5C 61.9998,117.641 64.3331,116.641 66.5,115.5 Z"/></g>
<g><path style="opacity:0.984" fill="#889bc8" d="M 300.5,117.5 C 300.842,116.662 301.508,116.328 302.5,116.5C 303.85,117.824 303.683,118.824 302,119.5C 301.035,119.07 300.535,118.404 300.5,117.5 Z"/></g>
<g><path style="opacity:0.282" fill="#c0e0c0" d="M 242.5,116.5 C 243.552,116.351 244.552,116.517 245.5,117C 240.703,121.569 235.037,123.569 228.5,123C 233.377,121.058 238.044,118.892 242.5,116.5 Z"/></g>
<g><path style="opacity:1" fill="#cdd7e8" d="M 295.5,113.5 C 295.5,114.833 296.167,115.5 297.5,115.5C 297.167,116.167 296.833,116.833 296.5,117.5C 289.292,122.695 281.959,122.695 274.5,117.5C 275.174,115.805 275.841,114.138 276.5,112.5C 278.782,111.61 281.115,111.444 283.5,112C 283.251,114.249 281.918,116.249 279.5,118C 281.669,118.429 283.669,117.929 285.5,116.5C 285.402,117.616 285.902,118.616 287,119.5C 289.218,116.64 292.052,114.64 295.5,113.5 Z"/></g>
<g><path style="opacity:1" fill="#375da4" d="M 277.5,113.5 C 281.243,113.459 281.41,114.126 278,115.5C 277.536,114.906 277.369,114.239 277.5,113.5 Z"/></g>
<g><path style="opacity:1" fill="#ebf5eb" d="M 443.5,117.5 C 452.094,117.4 452.427,118.067 444.5,119.5C 442.833,119.333 441.167,119.167 439.5,119C 441.058,118.79 442.391,118.29 443.5,117.5 Z"/></g>
<g><path style="opacity:0.451" fill="#e6b3b1" d="M 151.5,120.5 C 151.167,119.167 150.833,119.167 150.5,120.5C 149.127,120.657 147.793,120.49 146.5,120C 149.77,118.679 153.103,118.013 156.5,118C 154.807,118.847 153.14,119.68 151.5,120.5 Z"/></g>
<g><path style="opacity:0.502" fill="#f5e6b7" d="M 348.5,117.5 C 349.552,117.351 350.552,117.517 351.5,118C 348.454,120.174 345.12,120.841 341.5,120C 344.004,119.302 346.337,118.469 348.5,117.5 Z"/></g>
<g><path style="opacity:0.315" fill="#fdfafa" d="M 181.5,119.5 C 182.239,119.369 182.906,119.536 183.5,120C 177.797,126.018 170.797,129.018 162.5,129C 168.956,125.772 175.29,122.605 181.5,119.5 Z"/></g>
<g><path style="opacity:0.324" fill="#c9e4c8" d="M 225.5,116.5 C 225.5,117.167 225.5,117.833 225.5,118.5C 224.737,119.268 223.737,119.768 222.5,120C 223.333,120.167 224.167,120.333 225,120.5C 228.113,119.343 231.28,118.843 234.5,119C 230.603,120.019 226.936,121.519 223.5,123.5C 223.158,122.662 222.492,122.328 221.5,122.5C 221.119,121.069 220.119,120.236 218.5,120C 220.86,118.82 223.193,117.653 225.5,116.5 Z"/></g>
<g><path style="opacity:1" fill="#f2d5d3" d="M 391.5,112.5 C 392.873,112.343 394.207,112.51 395.5,113C 393.939,113.941 392.605,115.108 391.5,116.5C 393.826,117.39 396.159,117.557 398.5,117C 395.846,118.045 393.512,119.545 391.5,121.5C 392,121.833 392.5,122.167 393,122.5C 395.464,121.839 397.964,121.339 400.5,121C 401.112,119.697 401.446,118.53 401.5,117.5C 402.474,119.743 402.808,122.076 402.5,124.5C 391.503,127.074 387.836,123.074 391.5,112.5 Z"/></g>
<g><path style="opacity:0.494" fill="#afd7ae" d="M 197.5,125.5 C 197.5,125.167 197.5,124.833 197.5,124.5C 198.473,123.016 199.807,122.516 201.5,123C 200.529,124.481 199.196,125.315 197.5,125.5 Z"/></g>
<g><path style="opacity:0.322" fill="#c5e2c4" d="M 220.5,122.5 C 219.494,123.396 219.494,124.062 220.5,124.5C 218.153,125.895 215.819,125.728 213.5,124C 215.866,123.56 218.199,123.06 220.5,122.5 Z"/></g>
<g><path style="opacity:0.483" fill="#f4f6fa" d="M 301.5,122.5 C 300.909,123.151 300.243,123.818 299.5,124.5C 300.394,124.517 301.394,124.851 302.5,125.5C 301.71,126.794 300.71,127.961 299.5,129C 293.895,129.951 288.562,129.118 283.5,126.5C 282.438,125.575 282.438,124.575 283.5,123.5C 283.833,123.5 284.167,123.5 284.5,123.5C 286.932,123.988 288.432,124.988 289,126.5C 290.559,125.971 292.059,125.304 293.5,124.5C 293.402,125.616 293.902,126.616 295,127.5C 296.402,126.355 297.569,125.022 298.5,123.5C 299.209,122.596 300.209,122.263 301.5,122.5 Z"/></g>
<g><path style="opacity:0.975" fill="#b9c8df" d="M 284.5,123.5 C 289.167,123.5 293.833,123.5 298.5,123.5C 297.569,125.022 296.402,126.355 295,127.5C 293.902,126.616 293.402,125.616 293.5,124.5C 292.059,125.304 290.559,125.971 289,126.5C 288.432,124.988 286.932,123.988 284.5,123.5 Z"/></g>
<g><path style="opacity:1" fill="#fcf9f9" d="M 398.5,127.5 C 399.167,127.5 399.833,127.5 400.5,127.5C 399.15,128.824 399.317,129.824 401,130.5C 403.464,129.839 405.964,129.339 408.5,129C 409.112,127.697 409.446,126.53 409.5,125.5C 410.474,127.743 410.808,130.076 410.5,132.5C 407.15,132.665 403.817,132.498 400.5,132C 398.893,130.951 398.227,129.451 398.5,127.5 Z"/></g>
<g><path style="opacity:0.404" fill="#b9dcb8" d="M 196.5,127.5 C 200.339,127.612 200.339,128.279 196.5,129.5C 195.537,129.03 195.537,128.363 196.5,127.5 Z"/></g>
<g><path style="opacity:0.274" fill="#c8e3c8" d="M 203.5,128.5 C 203.5,129.167 203.5,129.833 203.5,130.5C 201.598,131.511 199.598,131.678 197.5,131C 199.407,129.878 201.407,129.045 203.5,128.5 Z"/></g>
<g><path style="opacity:0.363" fill="#badcb9" d="M 197.5,133.5 C 204.864,131.904 205.53,132.571 199.5,135.5C 199.5,134.167 198.833,133.5 197.5,133.5 Z"/></g>
<g><path style="opacity:0.314" fill="#d4e9d3" d="M 200.5,137.5 C 199.833,137.5 199.5,137.833 199.5,138.5C 198.448,138.649 197.448,138.483 196.5,138C 200.032,135.861 203.698,135.027 207.5,135.5C 205.392,136.944 203.059,137.61 200.5,137.5 Z"/></g>
<g><path style="opacity:0.308" fill="#c5e2c5" d="M 197.5,139.5 C 196.89,140.391 196.557,141.391 196.5,142.5C 195.115,141.053 195.448,140.053 197.5,139.5 Z"/></g>
<g><path style="opacity:1" fill="#89c284" d="M 200.5,137.5 C 202.562,138.776 204.896,139.61 207.5,140C 204.419,142.404 201.086,143.238 197.5,142.5C 198.551,141.778 199.218,140.778 199.5,139.5C 199.5,139.167 199.5,138.833 199.5,138.5C 199.5,137.833 199.833,137.5 200.5,137.5 Z"/></g>
<g><path style="opacity:0.353" fill="#a7d2a5" d="M 207.5,147.5 C 206.833,147.5 206.5,147.833 206.5,148.5C 206.167,148.5 205.833,148.5 205.5,148.5C 205.631,147.761 205.464,147.094 205,146.5C 203.951,147.517 202.784,147.684 201.5,147C 203.249,145.708 205.082,144.542 207,143.5C 206.645,144.959 206.811,146.293 207.5,147.5 Z"/></g>
<g><path style="opacity:0.312" fill="#d1e8d1" d="M 198.5,150.5 C 198.5,150.167 198.5,149.833 198.5,149.5C 200.331,148.948 201.997,148.948 203.5,149.5C 201.955,150.452 200.288,150.785 198.5,150.5 Z"/></g>
</svg>
